<svg width="168" height="162" viewBox="0 0 168 162" fill="none" xmlns="http://www.w3.org/2000/svg">
<path d="M76.0015 0.446026C77.8602 0.235306 80.1365 0.165064 82.197 0C82.1993 0 82.2005 0.00234283 82.2005 0.0070255C82.2005 0.0070255 82.2005 0.00819424 82.2005 0.0105356C82.2028 0.0175596 82.2005 0.0210738 82.1935 0.0210738C80.307 0.0245858 78.4623 -0.0421437 76.5898 0.189648C74.1951 0.488168 71.6717 0.75157 69.4128 1.20111C31.5299 8.75542 4.68754 42.6954 6.70629 81.805C6.82115 84.0387 6.93253 86.3109 7.2423 88.4743C10.2635 109.659 21.1891 128.149 38.1883 140.972C38.2486 141.019 38.302 141.012 38.3484 140.951L39.5562 139.402C39.5647 139.39 39.5709 139.377 39.5744 139.363C39.578 139.349 39.5788 139.335 39.5769 139.321C39.5749 139.307 39.5703 139.293 39.5631 139.281C39.556 139.269 39.5465 139.259 39.5353 139.251C24.7184 128.279 14.2661 112.837 10.0477 94.8135C-0.498553 49.7369 30.437 5.57003 76.0015 0.446026Z" fill="#57575B"/>
<path d="M102.301 7.98278C102.461 8.02141 102.6 8.14784 102.823 8.09867C102.837 8.09633 102.837 8.09282 102.823 8.08814C97.3863 6.51125 92.0506 5.67188 86.2519 5.48223C83.2679 5.3839 80.8895 5.39912 79.1167 5.52789C66.496 6.44335 55.1029 10.2504 44.9372 16.9489C10.3261 39.7594 1.74643 86.1669 25.3971 120.005C25.4281 120.049 25.4673 120.086 25.5125 120.115C25.5577 120.143 25.608 120.163 25.6604 120.171C25.7129 120.18 25.7664 120.178 25.818 120.166C25.8696 120.154 25.9182 120.131 25.961 120.1L27.0225 119.32C27.2592 119.147 27.2917 118.941 27.12 118.702C12.3553 97.8373 9.449 70.5947 20.2215 47.2224C33.2841 18.8735 62.4272 2.64805 93.2932 6.3216C95.5973 6.59554 98.5999 7.14926 102.301 7.98278Z" fill="#57575B"/>
<path d="M119.756 21.9395L120.498 22.4382C120.523 22.4546 120.545 22.4745 120.564 22.4979C120.585 22.526 120.607 22.547 120.63 22.5611C120.834 22.6805 120.843 22.6606 120.658 22.5014C120.384 22.2649 120.083 22.0776 119.756 21.9395Z" fill="#57575B"/>
<path d="M119.756 21.9395C119.691 21.8552 119.613 21.7838 119.523 21.7252C95.5486 6.03362 64.2023 7.57539 42.0831 25.9291C20.9037 43.5032 12.3449 71.5886 20.6356 98.2307C20.6496 98.2798 20.6809 98.2962 20.7296 98.2798L22.6996 97.6231C22.7577 97.6043 22.7774 97.5669 22.7588 97.5107C9.00348 54.6081 40.7814 11.1049 85.2043 11.6072C96.3515 11.7336 106.815 14.5678 116.596 20.1097C117.659 20.7114 118.712 21.3214 119.756 21.9395Z" fill="#57575B"/>
<path d="M91.7408 154.479C90.7314 154.591 89.381 154.591 88.2184 154.756C88.2101 154.757 88.2025 154.761 88.1973 154.768C88.1921 154.775 88.1897 154.783 88.1906 154.791C88.1915 154.8 88.1957 154.807 88.2022 154.813C88.2088 154.818 88.2171 154.82 88.2254 154.82C89.1547 154.798 90.1328 154.848 91.0412 154.76C107.616 153.198 122.038 147.124 134.309 136.536C172.383 103.681 170.27 44.1177 130.153 14.041C129.972 13.9052 129.813 13.9286 129.676 14.1112L128.774 15.3158C128.749 15.3498 128.73 15.3886 128.72 15.43C128.709 15.4714 128.707 15.5145 128.713 15.557C128.719 15.5994 128.734 15.6403 128.755 15.6773C128.777 15.7143 128.806 15.7466 128.841 15.7724C155.474 35.6012 166.553 69.4779 156.539 101.398C152.735 113.536 145.687 124.852 136.696 133.491C124.194 145.507 109.209 152.503 91.7408 154.479Z" fill="#57575B"/>
<path d="M130.925 39.668C127.38 35.0369 123.236 31.0344 118.493 27.6605C94.5879 10.6624 61.9364 13.3632 41.1573 34.2034C30.9707 44.4186 25.0467 56.7586 23.3853 71.2234C23.1904 72.9337 23.173 75.1112 22.9816 77.0638C22.956 77.3378 23.079 77.4794 23.3505 77.4888L24.8332 77.545C25.1233 77.5567 25.2706 77.4174 25.2753 77.127C25.3565 73.1561 25.5642 70.1651 25.8983 68.1539C28.6445 51.6124 37.4017 37.1218 51.1292 27.7624C59.6218 21.9722 69.0694 18.6241 79.4717 17.718C84.507 17.2779 89.0735 17.3785 93.1713 18.0201C108.414 20.4059 121.009 27.6605 130.957 39.7839C131.036 39.8776 131.047 39.8717 130.992 39.7664C130.975 39.7336 130.953 39.7008 130.925 39.668Z" fill="#57575B"/>
<path d="M135.311 59.1491C135.012 58.1587 134.701 57.269 134.378 56.48C125.819 35.5731 106.137 22.2204 83.725 22.0589C59.8864 21.8868 39.2638 37.5187 31.422 59.8866C31.3571 60.0716 31.4151 60.1969 31.5961 60.2624L33.1693 60.8419C33.2073 60.8561 33.2479 60.8623 33.2884 60.8603C33.329 60.8582 33.3688 60.8478 33.4055 60.8298C33.4422 60.8118 33.475 60.7865 33.502 60.7554C33.529 60.7243 33.5496 60.688 33.5626 60.6487C39.6014 41.9157 54.7594 28.2716 73.8993 24.3347C100.261 18.9121 126.091 33.9259 135.245 59.1702C135.248 59.1783 135.254 59.1849 135.262 59.1886C135.27 59.1923 135.279 59.1929 135.287 59.1902C135.296 59.1876 135.303 59.1819 135.307 59.1743C135.311 59.1667 135.313 59.1577 135.311 59.1491Z" fill="#57575B"/>
<path d="M69.7017 31.3797C97.9815 22.2064 127.594 40.6374 132.14 70.4051C132.398 72.1002 132.608 73.7766 132.77 75.4343C132.77 75.4371 132.771 75.4397 132.773 75.4417C132.775 75.4437 132.778 75.4448 132.781 75.4448C132.783 75.4448 132.786 75.4437 132.788 75.4417C132.79 75.4397 132.791 75.4371 132.791 75.4343C132.655 67.0406 130.142 58.8857 125.844 51.7528C120.103 42.226 112.112 35.353 101.869 31.1339C97.3051 29.2538 92.5611 28.1253 87.6372 27.7483C70.4291 26.4313 54.3104 33.8697 43.8791 47.8124C43.8512 47.8498 43.8559 47.8838 43.893 47.9142L45.4384 49.2242C45.4941 49.2687 45.5428 49.2628 45.5846 49.2066C51.8729 40.4992 59.9119 34.5569 69.7017 31.3797Z" fill="#57575B"/>
<path d="M125.973 87.8C126.115 86.8307 126.481 85.7595 126.676 84.7762C126.992 83.1572 127.1 81.2817 127.313 79.5257C127.429 78.5517 127.42 77.0018 127.288 74.8759C126.655 64.7636 123.174 55.9789 116.846 48.5218C102.071 31.1023 76.736 28.1487 58.1983 41.3187C58.1797 41.3315 58.1668 41.3512 58.1622 41.3734C58.1577 41.3957 58.1619 41.4189 58.1739 41.4381L59.2877 43.159C59.3179 43.2035 59.3538 43.2105 59.3956 43.18C85.6498 24.1415 121.583 39.4468 126.533 71.5395C127.4 77.1762 126.996 82.1527 125.927 87.8035C125.925 87.8129 125.928 87.8187 125.938 87.8211C125.942 87.8211 125.946 87.8211 125.948 87.8211C125.962 87.8234 125.97 87.8164 125.973 87.8Z" fill="#57575B"/>
<path d="M67.4636 147.22C67.1527 147.154 66.8406 147.102 66.5273 147.065C66.4949 147.06 66.4751 147.074 66.4682 147.107V147.111C66.4635 147.143 66.4775 147.165 66.5099 147.174C70.5509 148.206 74.9156 149.102 79.0888 149.267C80.9335 149.337 82.9836 149.541 84.6021 149.527C123.285 149.239 155.248 118.091 156.104 78.9182C156.454 62.8402 152.043 48.1846 142.871 34.9514C142.681 34.6775 142.451 34.6377 142.182 34.832L141.176 35.5625C140.923 35.7451 140.888 35.9641 141.071 36.2193C148.32 46.3479 152.642 57.7069 154.037 70.2962C154.235 72.1119 154.409 74.198 154.444 75.9014C155.178 112.921 128.465 144.294 91.8661 148.61C90.1397 148.814 88.1349 148.867 86.2589 149.007C83.2307 149.239 80.3627 148.94 77.3729 148.811C75.3936 148.726 72.0905 148.196 67.4636 147.22Z" fill="#57575B"/>
<path d="M144.434 101.191C135.965 123.633 115.482 139.908 91.7721 142.784C77.3857 144.528 63.8183 141.763 51.07 134.489C50.592 134.217 50.1094 133.955 49.6221 133.702C49.5966 133.69 49.5768 133.697 49.5629 133.723H49.5594C49.5455 133.749 49.5513 133.77 49.5768 133.786C62.397 141.833 76.157 145.118 90.8567 143.641C132.934 139.405 160.062 97.4264 147.587 56.7399C147.577 56.7074 147.554 56.6804 147.524 56.6647C147.494 56.6489 147.459 56.6456 147.427 56.6556L145.488 57.228C145.433 57.2444 145.413 57.2807 145.429 57.3369C150.139 72.3261 149.808 86.9443 144.434 101.191Z" fill="#57575B"/>
<path d="M42.2919 66.8931C41.7954 68.4548 41.4241 70.2365 41.1781 72.2383C38.1779 96.6116 55.2119 118.235 79.0749 121.441C89.9274 122.899 100.87 119.956 109.812 113.726C109.998 113.597 110.028 113.438 109.903 113.248L109.022 111.934C108.894 111.745 108.739 111.717 108.556 111.85C92.3952 123.626 70.0497 122.66 55.2885 109.093C45.9837 100.543 41.2837 89.7223 41.1886 76.6319C41.1816 75.6239 41.3417 74.5071 41.4044 73.443C41.5366 71.0829 41.9543 68.7825 42.3929 66.4787C42.3929 66.4716 42.3882 66.467 42.379 66.4646C42.3743 66.4646 42.3708 66.4634 42.3685 66.4611C42.3523 66.4588 42.3418 66.467 42.3372 66.4857C42.3163 66.6262 42.3372 66.7561 42.2919 66.8931Z" fill="#57575B"/>
<path d="M138.217 101.156C130.003 120.901 111.97 134.183 91.0029 137.017C90.3254 137.109 89.5492 137.178 88.6744 137.224C86.7253 137.326 84.6369 137.512 82.8479 137.463C66.6306 137.039 52.7767 131.063 41.286 119.534C40.1746 118.418 39.0944 117.27 38.0456 116.093C38.0224 116.067 37.998 116.066 37.9725 116.089H37.969C37.9435 116.113 37.9423 116.138 37.9656 116.166C46.4791 126.464 56.9603 133.23 69.4093 136.466C107.522 146.377 144.691 117.364 145.154 77.5941C145.154 77.5707 145.146 77.548 145.13 77.5305C145.115 77.513 145.094 77.5019 145.071 77.4993L143.09 77.3061C143.032 77.2991 143.001 77.326 142.996 77.3869C142.887 79.2038 142.756 81.0558 142.603 82.9429C142.095 89.2832 140.633 95.3543 138.217 101.156Z" fill="#57575B"/>
<path d="M77.3973 126.79C95.4964 129.459 113.376 121.835 124.319 107.07C124.337 107.047 124.345 107.018 124.341 106.988C124.337 106.959 124.322 106.931 124.298 106.912L122.791 105.69C122.78 105.681 122.767 105.675 122.753 105.671C122.739 105.667 122.725 105.666 122.71 105.668C122.696 105.67 122.682 105.675 122.67 105.682C122.657 105.69 122.647 105.7 122.638 105.711C112.805 119.088 97.9572 126.467 81.4626 125.786C57.0358 124.781 37.5374 105.286 35.6161 80.8498C35.6138 80.8263 35.6011 80.8158 35.5779 80.8182L35.4874 80.8287C35.4759 80.8296 35.4648 80.8327 35.4545 80.838C35.4443 80.8432 35.4352 80.8505 35.4278 80.8593C35.4204 80.8681 35.4147 80.8783 35.4112 80.8893C35.4077 80.9004 35.4064 80.912 35.4073 80.9235C35.9642 88.9918 38.2475 96.3857 42.2571 103.105C49.8309 115.805 62.7335 124.63 77.3973 126.79Z" fill="#57575B"/>
<path d="M33.4303 97.314C36.636 105.957 42.1249 113.764 49.1174 119.714C78.9566 145.091 124.013 131.988 136.745 95.0277C136.817 94.824 136.752 94.6835 136.55 94.6063L135.064 94.0408C134.857 93.9612 134.719 94.028 134.65 94.241C127.236 116.809 106.93 131.711 83.3735 131.651C61.0593 131.591 41.6828 117.768 33.4129 97.0893C33.4108 97.0848 33.4074 97.0811 33.4031 97.0786C33.3989 97.0762 33.394 97.075 33.3891 97.0754C33.3842 97.0758 33.3796 97.0777 33.3757 97.0808C33.3719 97.0838 33.3691 97.088 33.3677 97.0928C33.3538 97.1513 33.3584 97.1981 33.3816 97.2333C33.4094 97.2777 33.4257 97.3047 33.4303 97.314Z" fill="#57575B"/>
<path d="M84.4698 154.971C85.6115 155.044 86.7183 154.964 87.853 154.904C87.8576 154.901 87.8599 154.899 87.8599 154.897C87.8599 154.897 87.8599 154.894 87.8599 154.89C87.8576 154.883 87.853 154.879 87.846 154.879C86.7229 154.975 85.5976 155.012 84.4698 154.988C84.4652 154.988 84.4629 154.987 84.4629 154.985C84.4629 154.985 84.4629 154.982 84.4629 154.978C84.4629 154.973 84.4652 154.971 84.4698 154.971Z" fill="#57575B"/>
<path d="M76.0015 0.446026C30.437 5.57003 -0.498553 49.7369 10.0477 94.8135C14.2661 112.837 24.7184 128.279 39.5353 139.251C39.5465 139.259 39.556 139.269 39.5631 139.281C39.5703 139.293 39.5749 139.307 39.5769 139.321C39.5788 139.335 39.578 139.349 39.5744 139.363C39.5709 139.377 39.5647 139.39 39.5562 139.402L38.3484 140.951C38.302 141.012 38.2486 141.019 38.1883 140.972C21.1891 128.149 10.2635 109.659 7.2423 88.4743C6.93253 86.3109 6.82115 84.0387 6.70629 81.805C4.68754 42.6954 31.5299 8.75542 69.4128 1.20111C71.6717 0.75157 74.1951 0.488168 76.5898 0.189648C78.4623 -0.0421437 80.307 0.0245858 82.1935 0.0210738C82.2005 0.0210738 82.2028 0.0175596 82.2005 0.0105356C82.2005 0.00819424 82.2005 0.0070255 82.2005 0.0070255C82.2005 0.00234283 82.1993 0 82.197 0C80.1365 0.165064 77.8602 0.235306 76.0015 0.446026Z" fill="#57575B"/>
<path d="M102.301 7.98278C98.5999 7.14926 95.5973 6.59554 93.2932 6.3216C62.4272 2.64805 33.2841 18.8735 20.2215 47.2224C9.449 70.5947 12.3553 97.8373 27.12 118.702C27.2917 118.941 27.2592 119.147 27.0225 119.32L25.961 120.1C25.9182 120.131 25.8696 120.154 25.818 120.166C25.7664 120.178 25.7129 120.18 25.6604 120.171C25.608 120.163 25.5577 120.143 25.5125 120.115C25.4673 120.086 25.4281 120.049 25.3971 120.005C1.74643 86.1669 10.3261 39.7594 44.9372 16.9489C55.1029 10.2504 66.496 6.44335 79.1167 5.52789C80.8895 5.39912 83.2679 5.3839 86.2519 5.48223C92.0506 5.67188 97.3863 6.51125 102.823 8.08814C102.837 8.09282 102.837 8.09633 102.823 8.09867C102.6 8.14784 102.461 8.02141 102.301 7.98278Z" fill="#57575B"/>
<path d="M119.756 21.9395C118.712 21.3214 117.659 20.7114 116.596 20.1097C106.815 14.5678 96.3515 11.7336 85.2043 11.6072C40.7814 11.1049 9.00348 54.6081 22.7588 97.5107C22.7774 97.5669 22.7577 97.6043 22.6996 97.6231L20.7296 98.2798C20.6809 98.2962 20.6496 98.2798 20.6356 98.2307C12.3449 71.5886 20.9037 43.5032 42.0831 25.9291C64.2023 7.57539 95.5486 6.03362 119.523 21.7252C119.613 21.7838 119.691 21.8552 119.756 21.9395Z" fill="#57575B"/>
<path d="M91.7408 154.479C109.209 152.503 124.194 145.507 136.696 133.491C145.687 124.852 152.735 113.536 156.539 101.398C166.553 69.4779 155.474 35.6012 128.841 15.7724C128.806 15.7466 128.777 15.7143 128.755 15.6773C128.734 15.6403 128.719 15.5994 128.713 15.557C128.707 15.5145 128.709 15.4714 128.72 15.43C128.73 15.3886 128.749 15.3498 128.774 15.3158L129.676 14.1112C129.813 13.9286 129.972 13.9052 130.153 14.041C170.27 44.1177 172.383 103.681 134.309 136.536C122.038 147.124 107.616 153.198 91.0412 154.76C90.1328 154.848 89.1547 154.798 88.2254 154.82C88.2171 154.82 88.2088 154.818 88.2022 154.813C88.1957 154.807 88.1915 154.8 88.1906 154.791C88.1897 154.783 88.1921 154.775 88.1973 154.768C88.2025 154.761 88.2101 154.757 88.2184 154.756C89.381 154.591 90.7314 154.591 91.7408 154.479Z" fill="#57575B"/>
<path d="M130.925 39.668C130.953 39.7008 130.975 39.7336 130.992 39.7664C131.047 39.8717 131.036 39.8776 130.957 39.7839C121.009 27.6605 108.414 20.4059 93.1713 18.0201C89.0735 17.3785 84.507 17.2779 79.4717 17.718C69.0694 18.6241 59.6218 21.9722 51.1292 27.7624C37.4017 37.1218 28.6445 51.6124 25.8983 68.1539C25.5642 70.1651 25.3565 73.1561 25.2753 77.127C25.2706 77.4174 25.1233 77.5567 24.8332 77.545L23.3505 77.4888C23.079 77.4794 22.956 77.3378 22.9816 77.0638C23.173 75.1112 23.1904 72.9337 23.3853 71.2234C25.0467 56.7586 30.9707 44.4186 41.1573 34.2034C61.9364 13.3632 94.5879 10.6624 118.493 27.6605C123.236 31.0344 127.38 35.0369 130.925 39.668Z" fill="#57575B"/>
<path d="M119.756 21.9395C120.083 22.0776 120.384 22.2649 120.658 22.5014C120.843 22.6606 120.834 22.6805 120.63 22.5611C120.607 22.547 120.585 22.526 120.564 22.4979C120.545 22.4745 120.523 22.4546 120.498 22.4382L119.756 21.9395Z" fill="#57575B"/>
<path d="M135.311 59.1491C135.313 59.1577 135.311 59.1667 135.307 59.1743C135.303 59.1819 135.296 59.1876 135.287 59.1902C135.279 59.1929 135.27 59.1923 135.262 59.1886C135.254 59.1849 135.248 59.1783 135.245 59.1702C126.091 33.9259 100.261 18.9121 73.8993 24.3347C54.7594 28.2716 39.6014 41.9157 33.5626 60.6487C33.5496 60.688 33.529 60.7243 33.502 60.7554C33.475 60.7865 33.4422 60.8118 33.4055 60.8298C33.3688 60.8478 33.329 60.8582 33.2884 60.8603C33.2479 60.8623 33.2073 60.8561 33.1693 60.8419L31.5961 60.2624C31.4151 60.1969 31.3571 60.0716 31.422 59.8866C39.2638 37.5187 59.8864 21.8868 83.725 22.0589C106.137 22.2204 125.819 35.5731 134.378 56.48C134.701 57.269 135.012 58.1587 135.311 59.1491Z" fill="#57575B"/>
<path d="M132.14 70.4051C127.594 40.6374 97.9815 22.2064 69.7017 31.3797C59.9119 34.5569 51.8729 40.4992 45.5846 49.2066C45.5428 49.2628 45.4941 49.2687 45.4384 49.2242L43.893 47.9142C43.8559 47.8838 43.8512 47.8498 43.8791 47.8124C54.3104 33.8697 70.4291 26.4313 87.6372 27.7483C92.5611 28.1253 97.3051 29.2538 101.869 31.1339C112.112 35.353 120.103 42.226 125.844 51.7528C130.142 58.8857 132.655 67.0406 132.791 75.4343C132.791 75.4371 132.79 75.4397 132.788 75.4417C132.786 75.4437 132.783 75.4448 132.781 75.4448C132.778 75.4448 132.775 75.4437 132.773 75.4417C132.771 75.4397 132.77 75.4371 132.77 75.4343C132.608 73.7766 132.398 72.1002 132.14 70.4051Z" fill="#57575B"/>
<path d="M126.676 84.7762C126.481 85.7595 126.115 86.8307 125.973 87.8C125.97 87.8164 125.962 87.8234 125.948 87.8211C125.946 87.8211 125.942 87.8211 125.938 87.8211C125.928 87.8187 125.925 87.8129 125.927 87.8035C126.996 82.1527 127.4 77.1762 126.533 71.5395C121.583 39.4468 85.6498 24.1415 59.3956 43.18C59.3538 43.2105 59.3179 43.2035 59.2877 43.159L58.1739 41.4381C58.1619 41.4189 58.1577 41.3957 58.1622 41.3734C58.1668 41.3512 58.1797 41.3315 58.1983 41.3187C76.736 28.1487 102.071 31.1023 116.846 48.5218C123.174 55.9789 126.655 64.7636 127.288 74.8759C127.42 77.0018 127.429 78.5517 127.313 79.5257C127.1 81.2817 126.992 83.1572 126.676 84.7762Z" fill="#57575B"/>
<path d="M67.4636 147.22C72.0905 148.196 75.3936 148.726 77.3729 148.811C80.3627 148.94 83.2307 149.239 86.2589 149.007C88.1349 148.867 90.1397 148.814 91.8661 148.61C128.465 144.294 155.178 112.921 154.444 75.9014C154.409 74.198 154.235 72.1119 154.037 70.2962C152.642 57.7069 148.32 46.3479 141.071 36.2193C140.888 35.9641 140.923 35.7451 141.176 35.5625L142.182 34.832C142.451 34.6377 142.681 34.6775 142.871 34.9514C152.043 48.1846 156.454 62.8402 156.104 78.9182C155.248 118.091 123.285 149.239 84.6021 149.527C82.9836 149.541 80.9335 149.337 79.0888 149.267C74.9156 149.102 70.5509 148.206 66.5099 147.174C66.4775 147.165 66.4635 147.143 66.4682 147.111V147.107C66.4751 147.074 66.4949 147.06 66.5273 147.065C66.8406 147.102 67.1527 147.154 67.4636 147.22Z" fill="#57575B"/>
<path d="M144.434 101.191C149.808 86.9443 150.139 72.3261 145.429 57.3369C145.413 57.2807 145.433 57.2444 145.488 57.228L147.427 56.6556C147.459 56.6456 147.494 56.6489 147.524 56.6647C147.554 56.6804 147.577 56.7074 147.587 56.7399C160.062 97.4264 132.934 139.405 90.8567 143.641C76.157 145.118 62.397 141.833 49.5768 133.786C49.5513 133.77 49.5455 133.749 49.5594 133.723H49.5629C49.5768 133.697 49.5966 133.69 49.6221 133.702C50.1094 133.955 50.592 134.217 51.07 134.489C63.8183 141.763 77.3857 144.528 91.7721 142.784C115.482 139.908 135.965 123.633 144.434 101.191Z" fill="#57575B"/>
<path d="M42.2919 66.8931C42.3372 66.7561 42.3163 66.6262 42.3372 66.4857C42.3418 66.467 42.3523 66.4588 42.3685 66.4611C42.3708 66.4634 42.3743 66.4646 42.379 66.4646C42.3882 66.467 42.3929 66.4716 42.3929 66.4787C41.9543 68.7825 41.5366 71.0829 41.4044 73.443C41.3417 74.5071 41.1816 75.6239 41.1886 76.6319C41.2837 89.7223 45.9837 100.543 55.2885 109.093C70.0497 122.66 92.3952 123.626 108.556 111.85C108.739 111.717 108.894 111.745 109.022 111.934L109.903 113.248C110.028 113.438 109.998 113.597 109.812 113.726C100.87 119.956 89.9274 122.899 79.0749 121.441C55.2119 118.235 38.1779 96.6116 41.1781 72.2383C41.4241 70.2365 41.7954 68.4548 42.2919 66.8931Z" fill="#57575B"/>
<path d="M138.217 101.156C140.633 95.3543 142.095 89.2832 142.603 82.9429C142.756 81.0558 142.887 79.2038 142.996 77.3869C143.001 77.326 143.032 77.2991 143.09 77.3061L145.071 77.4993C145.094 77.5019 145.115 77.513 145.13 77.5305C145.146 77.548 145.154 77.5707 145.154 77.5941C144.691 117.364 107.522 146.377 69.4093 136.466C56.9603 133.23 46.4791 126.464 37.9656 116.166C37.9423 116.138 37.9435 116.113 37.969 116.089H37.9725C37.998 116.066 38.0224 116.067 38.0456 116.093C39.0944 117.27 40.1746 118.418 41.286 119.534C52.7767 131.063 66.6306 137.039 82.8479 137.463C84.6369 137.512 86.7253 137.326 88.6744 137.224C89.5492 137.178 90.3254 137.109 91.0029 137.017C111.97 134.183 130.003 120.901 138.217 101.156Z" fill="#57575B"/>
<path d="M124.319 107.07C113.376 121.835 95.4964 129.459 77.3973 126.79C62.7335 124.63 49.8309 115.805 42.2571 103.105C38.2475 96.3857 35.9642 88.9918 35.4073 80.9235C35.4064 80.912 35.4077 80.9004 35.4112 80.8893C35.4147 80.8783 35.4204 80.8681 35.4278 80.8593C35.4352 80.8505 35.4443 80.8432 35.4545 80.838C35.4648 80.8327 35.4759 80.8296 35.4874 80.8287L35.5779 80.8182C35.6011 80.8158 35.6138 80.8263 35.6161 80.8498C37.5374 105.286 57.0358 124.781 81.4626 125.786C97.9572 126.467 112.805 119.088 122.638 105.711C122.647 105.7 122.657 105.69 122.67 105.682C122.682 105.675 122.696 105.67 122.71 105.668C122.725 105.666 122.739 105.667 122.753 105.671C122.767 105.675 122.78 105.681 122.791 105.69L124.298 106.912C124.322 106.931 124.337 106.959 124.341 106.988C124.345 107.018 124.337 107.047 124.319 107.07Z" fill="#57575B"/>
<path d="M33.3816 97.2333C33.3584 97.1981 33.3538 97.1513 33.3677 97.0928C33.3691 97.088 33.3719 97.0838 33.3757 97.0808C33.3796 97.0777 33.3842 97.0758 33.3891 97.0754C33.394 97.075 33.3989 97.0762 33.4031 97.0786C33.4074 97.0811 33.4108 97.0848 33.4129 97.0893C41.6828 117.768 61.0593 131.591 83.3735 131.651C106.93 131.711 127.236 116.809 134.65 94.241C134.719 94.028 134.857 93.9612 135.064 94.0408L136.55 94.6063C136.752 94.6835 136.817 94.824 136.745 95.0277C124.013 131.988 78.9566 145.091 49.1174 119.714C42.1249 113.764 36.636 105.957 33.4303 97.314C33.4257 97.3047 33.4094 97.2777 33.3816 97.2333Z" fill="#57575B"/>
<path d="M87.853 154.904C86.7183 154.964 85.6115 155.044 84.4698 154.971C84.4652 154.971 84.4629 154.973 84.4629 154.978C84.4629 154.982 84.4629 154.985 84.4629 154.985C84.4629 154.987 84.4652 154.988 84.4698 154.988C85.5976 155.012 86.7229 154.975 87.846 154.879C87.853 154.879 87.8576 154.883 87.8599 154.89C87.8599 154.894 87.8599 154.897 87.8599 154.897C87.8599 154.899 87.8576 154.901 87.853 154.904Z" fill="#57575B"/>
<rect x="82.7998" width="6" height="35" rx="3" fill="#D9D9D9"/>
<path d="M84.0996 0C67.6417 -1.96259e-07 51.647 5.44972 38.6128 15.4983C25.5787 25.5468 16.2388 39.6286 12.0513 55.5448L45.6866 64.3939C47.9191 55.908 52.8988 48.4003 59.848 43.0428C66.7973 37.6854 75.325 34.7798 84.0996 34.7798V0Z" fill="url(#paint0_linear_56_15829)"/>
<defs>
<linearGradient id="paint0_linear_56_15829" x1="84.0996" y1="-3.49487e-06" x2="25.4653" y2="58.6343" gradientUnits="userSpaceOnUse">
<stop stop-color="#D9D9D9"/>
<stop offset="0.78125" stop-color="#D9D9D9" stop-opacity="0"/>
</linearGradient>
</defs>
</svg>
