<svg width="168" height="160" viewBox="0 0 168 160" fill="none" xmlns="http://www.w3.org/2000/svg">
<g opacity="0.25">
<path d="M75.6021 3.44603C77.4608 3.23531 79.7371 3.16506 81.7976 3C81.7999 3 81.8011 3.00234 81.8011 3.00703C81.8011 3.00703 81.8011 3.00819 81.8011 3.01054C81.8034 3.01756 81.8011 3.02107 81.7941 3.02107C79.9076 3.02459 78.0629 2.95786 76.1903 3.18965C73.7957 3.48817 71.2723 3.75157 69.0134 4.20111C31.1305 11.7554 4.28813 45.6954 6.30687 84.805C6.42173 87.0387 6.53311 89.3109 6.84289 91.4743C9.86405 112.659 20.7896 131.149 37.7889 143.972C37.8492 144.019 37.9026 144.012 37.949 143.951L39.1568 142.402C39.1653 142.39 39.1715 142.377 39.175 142.363C39.1786 142.349 39.1794 142.335 39.1775 142.321C39.1755 142.307 39.1709 142.293 39.1637 142.281C39.1566 142.269 39.1471 142.259 39.1359 142.251C24.319 131.279 13.8667 115.837 9.64825 97.8135C-0.897967 52.7369 30.0376 8.57003 75.6021 3.44603Z" fill="#57575B"/>
<path d="M101.902 10.9828C102.062 11.0214 102.201 11.1478 102.424 11.0987C102.438 11.0963 102.438 11.0928 102.424 11.0881C96.9869 9.51125 91.6512 8.67188 85.8525 8.48223C82.8685 8.3839 80.4901 8.39912 78.7173 8.52789C66.0966 9.44335 54.7034 13.2504 44.5378 19.9489C9.9267 42.7594 1.34702 89.1669 24.9977 123.005C25.0287 123.049 25.0679 123.086 25.1131 123.115C25.1583 123.143 25.2086 123.163 25.261 123.171C25.3135 123.18 25.367 123.178 25.4186 123.166C25.4702 123.154 25.5188 123.131 25.5615 123.1L26.6231 122.32C26.8598 122.147 26.8923 121.941 26.7206 121.702C11.9559 100.837 9.04959 73.5947 19.822 50.2224C32.8847 21.8735 62.0278 5.64805 92.8937 9.3216C95.1979 9.59554 98.2005 10.1493 101.902 10.9828Z" fill="#57575B"/>
<path d="M119.357 24.9395L120.098 25.4382C120.124 25.4546 120.146 25.4745 120.164 25.4979C120.185 25.526 120.207 25.547 120.23 25.5611C120.435 25.6805 120.444 25.6606 120.258 25.5014C119.984 25.2649 119.684 25.0776 119.357 24.9395Z" fill="#57575B"/>
<path d="M119.357 24.9395C119.292 24.8552 119.214 24.7838 119.124 24.7252C95.1492 9.03362 63.8029 10.5754 41.6837 28.9291C20.5042 46.5032 11.9454 74.5886 20.2362 101.231C20.2502 101.28 20.2815 101.296 20.3302 101.28L22.3002 100.623C22.3582 100.604 22.378 100.567 22.3594 100.511C8.60407 57.6081 40.3819 14.1049 84.8048 14.6072C95.952 14.7336 106.416 17.5678 116.196 23.1097C117.259 23.7114 118.313 24.3214 119.357 24.9395Z" fill="#57575B"/>
<path d="M91.3414 157.479C90.332 157.591 88.9816 157.591 87.819 157.756C87.8107 157.757 87.8031 157.761 87.7979 157.768C87.7927 157.775 87.7903 157.783 87.7912 157.791C87.7921 157.8 87.7963 157.807 87.8028 157.813C87.8093 157.818 87.8177 157.82 87.826 157.82C88.7553 157.798 89.7334 157.848 90.6418 157.76C107.216 156.198 121.639 150.124 133.909 139.536C171.983 106.681 169.871 47.1177 129.753 17.041C129.572 16.9052 129.413 16.9286 129.276 17.1112L128.375 18.3158C128.349 18.3498 128.331 18.3886 128.32 18.43C128.31 18.4714 128.307 18.5145 128.314 18.557C128.32 18.5994 128.334 18.6403 128.356 18.6773C128.378 18.7143 128.407 18.7466 128.441 18.7724C155.075 38.6012 166.153 72.4779 156.14 104.398C152.335 116.536 145.287 127.852 136.297 136.491C123.795 148.507 108.809 155.503 91.3414 157.479Z" fill="#57575B"/>
<path d="M130.526 42.668C126.98 38.0369 122.836 34.0344 118.093 30.6605C94.1885 13.6624 61.537 16.3632 40.7578 37.2034C30.5713 47.4186 24.6473 59.7586 22.9859 74.2234C22.791 75.9337 22.7736 78.1112 22.5822 80.0638C22.5566 80.3378 22.6796 80.4794 22.9511 80.4888L24.4338 80.545C24.7239 80.5567 24.8712 80.4174 24.8759 80.127C24.9571 76.1561 25.1648 73.1651 25.4989 71.1539C28.2451 54.6124 37.0023 40.1218 50.7298 30.7624C59.2224 24.9722 68.6699 21.6241 79.0723 20.718C84.1076 20.2779 88.6741 20.3785 92.7719 21.0201C108.015 23.4059 120.61 30.6605 130.557 42.7839C130.636 42.8776 130.648 42.8717 130.592 42.7664C130.576 42.7336 130.554 42.7008 130.526 42.668Z" fill="#57575B"/>
<path d="M134.912 62.1491C134.612 61.1587 134.301 60.269 133.979 59.48C125.42 38.5731 105.737 25.2204 83.3256 25.0589C59.487 24.8868 38.8644 40.5187 31.0226 62.8866C30.9576 63.0716 31.0156 63.1969 31.1966 63.2624L32.7699 63.8419C32.8079 63.8561 32.8484 63.8623 32.889 63.8603C32.9296 63.8582 32.9694 63.8478 33.0061 63.8298C33.0428 63.8118 33.0756 63.7865 33.1026 63.7554C33.1296 63.7243 33.1502 63.688 33.1632 63.6487C39.202 44.9157 54.36 31.2716 73.4998 27.3347C99.8619 21.9121 125.691 36.9259 134.845 62.1702C134.849 62.1783 134.855 62.1849 134.863 62.1886C134.871 62.1923 134.88 62.1929 134.888 62.1902C134.896 62.1876 134.903 62.1819 134.908 62.1743C134.912 62.1667 134.913 62.1577 134.912 62.1491Z" fill="#57575B"/>
<path d="M69.3022 34.3797C97.5821 25.2064 127.195 43.6374 131.741 73.4051C131.998 75.1002 132.208 76.7766 132.371 78.4343C132.371 78.4371 132.372 78.4397 132.374 78.4417C132.376 78.4437 132.378 78.4448 132.381 78.4448C132.384 78.4448 132.387 78.4437 132.389 78.4417C132.39 78.4397 132.392 78.4371 132.392 78.4343C132.256 70.0406 129.743 61.8857 125.444 54.7528C119.704 45.226 111.712 38.353 101.47 34.1339C96.9057 32.2538 92.1617 31.1253 87.2378 30.7483C70.0297 29.4313 53.911 36.8697 43.4797 50.8124C43.4518 50.8498 43.4565 50.8838 43.4936 50.9142L45.039 52.2242C45.0947 52.2687 45.1434 52.2628 45.1852 52.2066C51.4734 43.4992 59.5125 37.5569 69.3022 34.3797Z" fill="#57575B"/>
<path d="M125.573 90.8C125.716 89.8307 126.081 88.7595 126.276 87.7762C126.593 86.1572 126.701 84.2817 126.913 82.5257C127.029 81.5517 127.021 80.0018 126.889 77.8759C126.255 67.7636 122.775 58.9789 116.447 51.5218C101.672 34.1023 76.3365 31.1487 57.7989 44.3187C57.7803 44.3315 57.7673 44.3512 57.7628 44.3734C57.7583 44.3957 57.7624 44.4189 57.7745 44.4381L58.8883 46.159C58.9185 46.2035 58.9544 46.2105 58.9962 46.18C85.2504 27.1415 121.184 42.4468 126.133 74.5395C127 80.1762 126.596 85.1527 125.528 90.8035C125.526 90.8129 125.529 90.8187 125.538 90.8211C125.543 90.8211 125.546 90.8211 125.549 90.8211C125.563 90.8234 125.571 90.8164 125.573 90.8Z" fill="#57575B"/>
<path d="M67.0642 150.22C66.7533 150.154 66.4412 150.102 66.1279 150.065C66.0954 150.06 66.0757 150.074 66.0688 150.107V150.111C66.0641 150.143 66.078 150.165 66.1105 150.174C70.1515 151.206 74.5162 152.102 78.6894 152.267C80.5341 152.337 82.5842 152.541 84.2027 152.527C122.886 152.239 154.848 121.091 155.705 81.9182C156.055 65.8402 151.644 51.1846 142.471 37.9514C142.281 37.6775 142.051 37.6377 141.782 37.832L140.776 38.5625C140.523 38.7451 140.489 38.9641 140.672 39.2193C147.921 49.3479 152.243 60.7069 153.637 73.2962C153.836 75.1119 154.01 77.198 154.044 78.9014C154.779 115.921 128.065 147.294 91.4667 151.61C89.7403 151.814 87.7355 151.867 85.8595 152.007C82.8313 152.239 79.9633 151.94 76.9735 151.811C74.9942 151.726 71.6911 151.196 67.0642 150.22Z" fill="#57575B"/>
<path d="M144.034 104.191C135.566 126.633 115.083 142.908 91.3727 145.784C76.9863 147.528 63.4189 144.763 50.6706 137.489C50.1926 137.217 49.7099 136.955 49.2227 136.702C49.1971 136.69 49.1774 136.697 49.1635 136.723H49.16C49.1461 136.749 49.1519 136.77 49.1774 136.786C61.9976 144.833 75.7576 148.118 90.4573 146.641C132.534 142.405 159.662 100.426 147.188 59.7399C147.177 59.7074 147.155 59.6804 147.125 59.6647C147.095 59.6489 147.06 59.6456 147.028 59.6556L145.089 60.228C145.033 60.2444 145.013 60.2807 145.03 60.3369C149.74 75.3261 149.408 89.9443 144.034 104.191Z" fill="#57575B"/>
<path d="M41.8925 69.8931C41.396 71.4548 41.0247 73.2365 40.7787 75.2383C37.7785 99.6116 54.8125 121.235 78.6755 124.441C89.528 125.899 100.471 122.956 109.413 116.726C109.598 116.597 109.628 116.438 109.503 116.248L108.623 114.934C108.495 114.745 108.339 114.717 108.156 114.85C91.9958 126.626 69.6503 125.66 54.8891 112.093C45.5843 103.543 40.8843 92.7223 40.7892 79.6319C40.7822 78.6239 40.9423 77.5071 41.005 76.443C41.1372 74.0829 41.5549 71.7825 41.9935 69.4787C41.9935 69.4716 41.9888 69.467 41.9795 69.4646C41.9749 69.4646 41.9714 69.4634 41.9691 69.4611C41.9529 69.4588 41.9424 69.467 41.9378 69.4857C41.9169 69.6262 41.9378 69.7561 41.8925 69.8931Z" fill="#57575B"/>
<path d="M137.818 104.156C129.604 123.901 111.571 137.183 90.6035 140.017C89.926 140.109 89.1498 140.178 88.275 140.224C86.3259 140.326 84.2375 140.512 82.4485 140.463C66.2312 140.039 52.3773 134.063 40.8866 122.534C39.7752 121.418 38.695 120.27 37.6462 119.093C37.623 119.067 37.5986 119.066 37.5731 119.089H37.5696C37.5441 119.113 37.5429 119.138 37.5661 119.166C46.0797 129.464 56.5609 136.23 69.0099 139.466C107.122 149.377 144.292 120.364 144.755 80.5941C144.755 80.5707 144.746 80.548 144.731 80.5305C144.716 80.513 144.694 80.5019 144.671 80.4993L142.691 80.3061C142.633 80.2991 142.601 80.326 142.597 80.3869C142.488 82.2038 142.357 84.0558 142.203 85.9429C141.695 92.2832 140.233 98.3543 137.818 104.156Z" fill="#57575B"/>
<path d="M76.9979 129.79C95.097 132.459 112.977 124.835 123.92 110.07C123.938 110.047 123.945 110.018 123.941 109.988C123.937 109.959 123.922 109.931 123.899 109.912L122.392 108.69C122.38 108.681 122.367 108.675 122.354 108.671C122.34 108.667 122.325 108.666 122.311 108.668C122.297 108.67 122.283 108.675 122.27 108.682C122.258 108.69 122.247 108.7 122.239 108.711C112.406 122.088 97.5578 129.467 81.0632 128.786C56.6363 127.781 37.138 108.286 35.2167 83.8498C35.2144 83.8263 35.2017 83.8158 35.1784 83.8182L35.088 83.8287C35.0765 83.8296 35.0654 83.8327 35.0551 83.838C35.0449 83.8432 35.0358 83.8505 35.0284 83.8593C35.0209 83.8681 35.0153 83.8783 35.0118 83.8893C35.0083 83.9004 35.0069 83.912 35.0079 83.9235C35.5648 91.9918 37.8481 99.3857 41.8577 106.105C49.4315 118.805 62.3341 127.63 76.9979 129.79Z" fill="#57575B"/>
<path d="M33.0309 100.314C36.2365 108.957 41.7255 116.764 48.718 122.714C78.5572 148.091 123.614 134.988 136.346 98.0277C136.417 97.824 136.353 97.6835 136.151 97.6063L134.664 97.0408C134.458 96.9612 134.32 97.028 134.25 97.241C126.837 119.809 106.531 134.711 82.974 134.651C60.6599 134.591 41.2834 120.768 33.0135 100.089C33.0114 100.085 33.008 100.081 33.0037 100.079C32.9995 100.076 32.9946 100.075 32.9897 100.075C32.9848 100.076 32.9802 100.078 32.9763 100.081C32.9725 100.084 32.9697 100.088 32.9683 100.093C32.9543 100.151 32.959 100.198 32.9822 100.233C33.01 100.278 33.0263 100.305 33.0309 100.314Z" fill="#57575B"/>
<path d="M84.0704 157.971C85.2121 158.044 86.3189 157.964 87.4536 157.904C87.4582 157.901 87.4605 157.899 87.4605 157.897C87.4605 157.897 87.4605 157.894 87.4605 157.89C87.4582 157.883 87.4536 157.879 87.4466 157.879C86.3235 157.975 85.1981 158.012 84.0704 157.988C84.0658 157.988 84.0635 157.987 84.0635 157.985C84.0635 157.985 84.0635 157.982 84.0635 157.978C84.0635 157.973 84.0658 157.971 84.0704 157.971Z" fill="#57575B"/>
<path d="M75.6021 3.44603C30.0376 8.57003 -0.897967 52.7369 9.64825 97.8135C13.8667 115.837 24.319 131.279 39.1359 142.251C39.1471 142.259 39.1566 142.269 39.1637 142.281C39.1709 142.293 39.1755 142.307 39.1775 142.321C39.1794 142.335 39.1786 142.349 39.175 142.363C39.1715 142.377 39.1653 142.39 39.1568 142.402L37.949 143.951C37.9026 144.012 37.8492 144.019 37.7889 143.972C20.7896 131.149 9.86405 112.659 6.84289 91.4743C6.53311 89.3109 6.42173 87.0387 6.30687 84.805C4.28813 45.6954 31.1305 11.7554 69.0134 4.20111C71.2723 3.75157 73.7957 3.48817 76.1903 3.18965C78.0629 2.95786 79.9076 3.02459 81.7941 3.02107C81.8011 3.02107 81.8034 3.01756 81.8011 3.01054C81.8011 3.00819 81.8011 3.00703 81.8011 3.00703C81.8011 3.00234 81.7999 3 81.7976 3C79.7371 3.16506 77.4608 3.23531 75.6021 3.44603Z" fill="#57575B"/>
<path d="M101.902 10.9828C98.2005 10.1493 95.1979 9.59554 92.8937 9.3216C62.0278 5.64805 32.8847 21.8735 19.822 50.2224C9.04959 73.5947 11.9559 100.837 26.7206 121.702C26.8923 121.941 26.8598 122.147 26.6231 122.32L25.5615 123.1C25.5188 123.131 25.4702 123.154 25.4186 123.166C25.367 123.178 25.3135 123.18 25.261 123.171C25.2086 123.163 25.1583 123.143 25.1131 123.115C25.0679 123.086 25.0287 123.049 24.9977 123.005C1.34702 89.1669 9.9267 42.7594 44.5378 19.9489C54.7034 13.2504 66.0966 9.44335 78.7173 8.52789C80.4901 8.39912 82.8685 8.3839 85.8525 8.48223C91.6512 8.67188 96.9869 9.51125 102.424 11.0881C102.438 11.0928 102.438 11.0963 102.424 11.0987C102.201 11.1478 102.062 11.0214 101.902 10.9828Z" fill="#57575B"/>
<path d="M119.357 24.9395C118.313 24.3214 117.259 23.7114 116.196 23.1097C106.416 17.5678 95.952 14.7336 84.8048 14.6072C40.3819 14.1049 8.60407 57.6081 22.3594 100.511C22.378 100.567 22.3582 100.604 22.3002 100.623L20.3302 101.28C20.2815 101.296 20.2502 101.28 20.2362 101.231C11.9454 74.5886 20.5042 46.5032 41.6837 28.9291C63.8029 10.5754 95.1492 9.03362 119.124 24.7252C119.214 24.7838 119.292 24.8552 119.357 24.9395Z" fill="#57575B"/>
<path d="M91.3414 157.479C108.809 155.503 123.795 148.507 136.297 136.491C145.287 127.852 152.335 116.536 156.14 104.398C166.153 72.4779 155.075 38.6012 128.441 18.7724C128.407 18.7466 128.378 18.7143 128.356 18.6773C128.334 18.6403 128.32 18.5994 128.314 18.557C128.307 18.5145 128.31 18.4714 128.32 18.43C128.331 18.3886 128.349 18.3498 128.375 18.3158L129.276 17.1112C129.413 16.9286 129.572 16.9052 129.753 17.041C169.871 47.1177 171.983 106.681 133.909 139.536C121.639 150.124 107.216 156.198 90.6418 157.76C89.7334 157.848 88.7553 157.798 87.826 157.82C87.8177 157.82 87.8093 157.818 87.8028 157.813C87.7963 157.807 87.7921 157.8 87.7912 157.791C87.7903 157.783 87.7927 157.775 87.7979 157.768C87.8031 157.761 87.8107 157.757 87.819 157.756C88.9816 157.591 90.332 157.591 91.3414 157.479Z" fill="#57575B"/>
<path d="M130.526 42.668C130.554 42.7008 130.576 42.7336 130.592 42.7664C130.648 42.8717 130.636 42.8776 130.557 42.7839C120.61 30.6605 108.015 23.4059 92.7719 21.0201C88.6741 20.3785 84.1076 20.2779 79.0723 20.718C68.6699 21.6241 59.2224 24.9722 50.7298 30.7624C37.0023 40.1218 28.2451 54.6124 25.4989 71.1539C25.1648 73.1651 24.9571 76.1561 24.8759 80.127C24.8712 80.4174 24.7239 80.5567 24.4338 80.545L22.9511 80.4888C22.6796 80.4794 22.5566 80.3378 22.5822 80.0638C22.7736 78.1112 22.791 75.9337 22.9859 74.2234C24.6473 59.7586 30.5713 47.4186 40.7578 37.2034C61.537 16.3632 94.1885 13.6624 118.093 30.6605C122.836 34.0344 126.98 38.0369 130.526 42.668Z" fill="#57575B"/>
<path d="M119.357 24.9395C119.684 25.0776 119.984 25.2649 120.258 25.5014C120.444 25.6606 120.435 25.6805 120.23 25.5611C120.207 25.547 120.185 25.526 120.164 25.4979C120.146 25.4745 120.124 25.4546 120.098 25.4382L119.357 24.9395Z" fill="#57575B"/>
<path d="M134.912 62.1491C134.913 62.1577 134.912 62.1667 134.908 62.1743C134.903 62.1819 134.896 62.1876 134.888 62.1902C134.88 62.1929 134.871 62.1923 134.863 62.1886C134.855 62.1849 134.849 62.1783 134.845 62.1702C125.691 36.9259 99.8619 21.9121 73.4998 27.3347C54.36 31.2716 39.202 44.9157 33.1632 63.6487C33.1502 63.688 33.1296 63.7243 33.1026 63.7554C33.0756 63.7865 33.0428 63.8118 33.0061 63.8298C32.9694 63.8478 32.9296 63.8582 32.889 63.8603C32.8484 63.8623 32.8079 63.8561 32.7699 63.8419L31.1966 63.2624C31.0156 63.1969 30.9576 63.0716 31.0226 62.8866C38.8644 40.5187 59.487 24.8868 83.3256 25.0589C105.737 25.2204 125.42 38.5731 133.979 59.48C134.301 60.269 134.612 61.1587 134.912 62.1491Z" fill="#57575B"/>
<path d="M131.741 73.4051C127.195 43.6374 97.5821 25.2064 69.3022 34.3797C59.5125 37.5569 51.4734 43.4992 45.1852 52.2066C45.1434 52.2628 45.0947 52.2687 45.039 52.2242L43.4936 50.9142C43.4565 50.8838 43.4518 50.8498 43.4797 50.8124C53.911 36.8697 70.0297 29.4313 87.2378 30.7483C92.1617 31.1253 96.9057 32.2538 101.47 34.1339C111.712 38.353 119.704 45.226 125.444 54.7528C129.743 61.8857 132.256 70.0406 132.392 78.4343C132.392 78.4371 132.39 78.4397 132.389 78.4417C132.387 78.4437 132.384 78.4448 132.381 78.4448C132.378 78.4448 132.376 78.4437 132.374 78.4417C132.372 78.4397 132.371 78.4371 132.371 78.4343C132.208 76.7766 131.998 75.1002 131.741 73.4051Z" fill="#57575B"/>
<path d="M126.276 87.7762C126.081 88.7595 125.716 89.8307 125.573 90.8C125.571 90.8164 125.563 90.8234 125.549 90.8211C125.546 90.8211 125.543 90.8211 125.538 90.8211C125.529 90.8187 125.526 90.8129 125.528 90.8035C126.596 85.1527 127 80.1762 126.133 74.5395C121.184 42.4468 85.2504 27.1415 58.9962 46.18C58.9544 46.2105 58.9185 46.2035 58.8883 46.159L57.7745 44.4381C57.7624 44.4189 57.7583 44.3957 57.7628 44.3734C57.7673 44.3512 57.7803 44.3315 57.7989 44.3187C76.3365 31.1487 101.672 34.1023 116.447 51.5218C122.775 58.9789 126.255 67.7636 126.889 77.8759C127.021 80.0018 127.029 81.5517 126.913 82.5257C126.701 84.2817 126.593 86.1572 126.276 87.7762Z" fill="#57575B"/>
<path d="M67.0642 150.22C71.6911 151.196 74.9942 151.726 76.9735 151.811C79.9633 151.94 82.8313 152.239 85.8595 152.007C87.7355 151.867 89.7403 151.814 91.4667 151.61C128.065 147.294 154.779 115.921 154.044 78.9014C154.01 77.198 153.836 75.1119 153.637 73.2962C152.243 60.7069 147.921 49.3479 140.672 39.2193C140.489 38.9641 140.523 38.7451 140.776 38.5625L141.782 37.832C142.051 37.6377 142.281 37.6775 142.471 37.9514C151.644 51.1846 156.055 65.8402 155.705 81.9182C154.848 121.091 122.886 152.239 84.2027 152.527C82.5842 152.541 80.5341 152.337 78.6894 152.267C74.5162 152.102 70.1515 151.206 66.1105 150.174C66.078 150.165 66.0641 150.143 66.0688 150.111V150.107C66.0757 150.074 66.0954 150.06 66.1279 150.065C66.4412 150.102 66.7533 150.154 67.0642 150.22Z" fill="#57575B"/>
<path d="M144.034 104.191C149.408 89.9443 149.74 75.3261 145.03 60.3369C145.013 60.2807 145.033 60.2444 145.089 60.228L147.028 59.6556C147.06 59.6456 147.095 59.6489 147.125 59.6647C147.155 59.6804 147.177 59.7074 147.188 59.7399C159.662 100.426 132.534 142.405 90.4573 146.641C75.7576 148.118 61.9976 144.833 49.1774 136.786C49.1519 136.77 49.1461 136.749 49.16 136.723H49.1635C49.1774 136.697 49.1971 136.69 49.2227 136.702C49.7099 136.955 50.1926 137.217 50.6706 137.489C63.4189 144.763 76.9863 147.528 91.3727 145.784C115.083 142.908 135.566 126.633 144.034 104.191Z" fill="#57575B"/>
<path d="M41.8925 69.8931C41.9378 69.7561 41.9169 69.6262 41.9378 69.4857C41.9424 69.467 41.9529 69.4588 41.9691 69.4611C41.9714 69.4634 41.9749 69.4646 41.9795 69.4646C41.9888 69.467 41.9935 69.4716 41.9935 69.4787C41.5549 71.7825 41.1372 74.0829 41.005 76.443C40.9423 77.5071 40.7822 78.6239 40.7892 79.6319C40.8843 92.7223 45.5843 103.543 54.8891 112.093C69.6503 125.66 91.9958 126.626 108.156 114.85C108.339 114.717 108.495 114.745 108.623 114.934L109.503 116.248C109.628 116.438 109.598 116.597 109.413 116.726C100.471 122.956 89.528 125.899 78.6755 124.441C54.8125 121.235 37.7785 99.6116 40.7787 75.2383C41.0247 73.2365 41.396 71.4548 41.8925 69.8931Z" fill="#57575B"/>
<path d="M137.818 104.156C140.233 98.3543 141.695 92.2832 142.203 85.9429C142.357 84.0558 142.488 82.2038 142.597 80.3869C142.601 80.326 142.633 80.2991 142.691 80.3061L144.671 80.4993C144.694 80.5019 144.716 80.513 144.731 80.5305C144.746 80.548 144.755 80.5707 144.755 80.5941C144.292 120.364 107.122 149.377 69.0099 139.466C56.5609 136.23 46.0797 129.464 37.5661 119.166C37.5429 119.138 37.5441 119.113 37.5696 119.089H37.5731C37.5986 119.066 37.623 119.067 37.6462 119.093C38.695 120.27 39.7752 121.418 40.8866 122.534C52.3773 134.063 66.2312 140.039 82.4485 140.463C84.2375 140.512 86.3259 140.326 88.275 140.224C89.1498 140.178 89.926 140.109 90.6035 140.017C111.571 137.183 129.604 123.901 137.818 104.156Z" fill="#57575B"/>
<path d="M123.92 110.07C112.977 124.835 95.097 132.459 76.9979 129.79C62.3341 127.63 49.4315 118.805 41.8577 106.105C37.8481 99.3857 35.5648 91.9918 35.0079 83.9235C35.0069 83.912 35.0083 83.9004 35.0118 83.8893C35.0153 83.8783 35.0209 83.8681 35.0284 83.8593C35.0358 83.8505 35.0449 83.8432 35.0551 83.838C35.0654 83.8327 35.0765 83.8296 35.088 83.8287L35.1784 83.8182C35.2017 83.8158 35.2144 83.8263 35.2167 83.8498C37.138 108.286 56.6363 127.781 81.0632 128.786C97.5578 129.467 112.406 122.088 122.239 108.711C122.247 108.7 122.258 108.69 122.27 108.682C122.283 108.675 122.297 108.67 122.311 108.668C122.325 108.666 122.34 108.667 122.354 108.671C122.367 108.675 122.38 108.681 122.392 108.69L123.899 109.912C123.922 109.931 123.937 109.959 123.941 109.988C123.945 110.018 123.938 110.047 123.92 110.07Z" fill="#57575B"/>
<path d="M32.9822 100.233C32.959 100.198 32.9543 100.151 32.9683 100.093C32.9697 100.088 32.9725 100.084 32.9763 100.081C32.9802 100.078 32.9848 100.076 32.9897 100.075C32.9946 100.075 32.9995 100.076 33.0037 100.079C33.008 100.081 33.0114 100.085 33.0135 100.089C41.2834 120.768 60.6599 134.591 82.974 134.651C106.531 134.711 126.837 119.809 134.25 97.241C134.32 97.028 134.458 96.9612 134.664 97.0408L136.151 97.6063C136.353 97.6835 136.417 97.824 136.346 98.0277C123.614 134.988 78.5572 148.091 48.718 122.714C41.7255 116.764 36.2365 108.957 33.0309 100.314C33.0263 100.305 33.01 100.278 32.9822 100.233Z" fill="#57575B"/>
<path d="M87.4536 157.904C86.3189 157.964 85.2121 158.044 84.0704 157.971C84.0658 157.971 84.0635 157.973 84.0635 157.978C84.0635 157.982 84.0635 157.985 84.0635 157.985C84.0635 157.987 84.0658 157.988 84.0704 157.988C85.1981 158.012 86.3235 157.975 87.4466 157.879C87.4536 157.879 87.4582 157.883 87.4605 157.89C87.4605 157.894 87.4605 157.897 87.4605 157.897C87.4605 157.899 87.4582 157.901 87.4536 157.904Z" fill="#57575B"/>
</g>
<path d="M82.1182 5.42246L81.8358 5.70566L82.4014 6.27126L82.6846 5.98886L82.1182 5.42246ZM84.0014 4.10566L84.2846 3.82246L84.0014 3.54006L83.7182 3.82246L84.0014 4.10566ZM85.3182 5.98886L85.6014 6.27126L86.167 5.70566L85.8846 5.42246L85.3182 5.98886ZM82.6846 5.98886L84.2846 4.38886L83.7182 3.82246L82.1182 5.42246L82.6846 5.98886ZM83.7182 4.38886L85.3182 5.98886L85.8846 5.42246L84.2846 3.82246L83.7182 4.38886ZM83.6014 4.10566V9.30566H84.4014V4.10566H83.6014Z" fill="white"/>
<path d="M87.784 11.3057V20.3493H86.1325L82.198 14.6573H82.1318V20.3493H80.2197V11.3057H81.8977L85.8013 16.9932H85.8808V11.3057H87.784Z" fill="white"/>
<path d="M7.88242 78.405L8.16562 78.6874L8.73122 78.1218L8.44882 77.8386L7.88242 78.405ZM6.56562 76.5218L6.28242 76.2386L6.00003 76.5218L6.28242 76.805L6.56562 76.5218ZM8.44883 75.205L8.73122 74.9218L8.16562 74.3562L7.88242 74.6386L8.44883 75.205ZM8.44882 77.8386L6.84882 76.2386L6.28242 76.805L7.88242 78.405L8.44882 77.8386ZM6.84882 76.805L8.44883 75.205L7.88242 74.6386L6.28242 76.2386L6.84882 76.805ZM6.56562 76.9218L11.7656 76.9218L11.7656 76.1218L6.56562 76.1218L6.56562 76.9218Z" fill="white"/>
<path d="M16.3533 81.0436L13.7656 72H15.8543L17.3513 78.2837H17.4263L19.0779 72H20.8663L22.5134 78.297H22.5929L24.0898 72H26.1785L23.5908 81.0436H21.7274L20.0052 75.1308H19.9345L18.2168 81.0436H16.3533Z" fill="white"/>
<path d="M148.123 81.0436V72H154.217V73.5764H150.035V75.7314H153.903V77.3078H150.035V79.4672H154.235V81.0436H148.123Z" fill="white"/>
<path d="M160.118 74.6387L159.834 74.3563L159.269 74.9219L159.551 75.2051L160.118 74.6387ZM161.434 76.5219L161.718 76.8051L162 76.5219L161.718 76.2387L161.434 76.5219ZM159.551 77.8387L159.269 78.1219L159.834 78.6875L160.118 78.4051L159.551 77.8387ZM159.551 75.2051L161.151 76.8051L161.718 76.2387L160.118 74.6387L159.551 75.2051ZM161.151 76.2387L159.551 77.8387L160.118 78.4051L161.718 76.8051L161.151 76.2387ZM161.434 76.1219L156.234 76.1219L156.234 76.9219L161.434 76.9219L161.434 76.1219Z" fill="white"/>
<path d="M85.6203 142.195C85.5849 141.838 85.4333 141.562 85.1654 141.364C84.8976 141.167 84.534 141.068 84.0747 141.068C83.7627 141.068 83.4992 141.113 83.2843 141.201C83.0694 141.286 82.9045 141.406 82.7897 141.559C82.6779 141.712 82.6219 141.885 82.6219 142.08C82.616 142.242 82.6499 142.383 82.7235 142.504C82.8 142.624 82.9045 142.729 83.037 142.817C83.1695 142.903 83.3226 142.978 83.4963 143.042C83.67 143.104 83.8554 143.157 84.0527 143.201L84.8652 143.396C85.2596 143.484 85.6217 143.602 85.9515 143.749C86.2812 143.896 86.5667 144.077 86.8081 144.292C87.0495 144.507 87.2365 144.76 87.3689 145.052C87.5044 145.343 87.5735 145.677 87.5765 146.054C87.5735 146.607 87.4322 147.087 87.1526 147.494C86.8758 147.897 86.4755 148.21 85.9515 148.434C85.4304 148.655 84.8019 148.765 84.0659 148.765C83.3358 148.765 82.6999 148.653 82.1583 148.43C81.6195 148.206 81.1986 147.875 80.8953 147.436C80.5951 146.995 80.4376 146.448 80.4229 145.798H82.2731C82.2937 146.101 82.3805 146.354 82.5336 146.557C82.6896 146.758 82.8972 146.909 83.1562 147.012C83.4183 147.112 83.7141 147.162 84.0438 147.162C84.3677 147.162 84.6488 147.115 84.8872 147.021C85.1286 146.927 85.3156 146.796 85.4481 146.628C85.5805 146.46 85.6468 146.267 85.6468 146.05C85.6468 145.846 85.5864 145.676 85.4657 145.537C85.348 145.399 85.1743 145.281 84.9447 145.184C84.718 145.087 84.4398 144.999 84.1101 144.919L83.1253 144.672C82.3629 144.486 81.7608 144.196 81.3193 143.802C80.8777 143.407 80.6584 142.876 80.6613 142.208C80.6584 141.66 80.8041 141.182 81.0985 140.773C81.3958 140.363 81.8035 140.044 82.3217 139.814C82.8398 139.585 83.4286 139.47 84.088 139.47C84.7592 139.47 85.345 139.585 85.8455 139.814C86.3489 140.044 86.7404 140.363 87.0201 140.773C87.2998 141.182 87.444 141.656 87.4528 142.195H85.6203Z" fill="white"/>
<path d="M85.8828 154.649L86.1652 154.365L85.5996 153.8L85.3164 154.082L85.8828 154.649ZM83.9996 155.965L83.7164 156.249L83.9996 156.531L84.2828 156.249L83.9996 155.965ZM82.6828 154.082L82.3996 153.8L81.834 154.365L82.1164 154.649L82.6828 154.082ZM85.3164 154.082L83.7164 155.682L84.2828 156.249L85.8828 154.649L85.3164 154.082ZM84.2828 155.682L82.6828 154.082L82.1164 154.649L83.7164 156.249L84.2828 155.682ZM84.3996 155.965V150.765H83.5996V155.965H84.3996Z" fill="white"/>
</svg>
