<svg width="1784" height="749" viewBox="0 0 1784 749" fill="none" xmlns="http://www.w3.org/2000/svg">
<g clip-path="url(#clip0_56_1253)" filter="url(#filter0_d_56_1253)">
<path d="M346 228.371C346.041 228.831 598.453 239.064 599.077 239.094C707.361 243.273 815.21 249.316 923.577 250C995.485 250.444 1068.41 250.436 1140.12 244.536C1155.67 243.259 1171.12 241.19 1186.47 238.33C1193.74 236.981 1200.74 234.815 1207.49 231.832C1212.5 229.626 1217.79 223.802 1211.7 219.205C1208.16 216.518 1204.3 214.311 1200.14 212.585C1182.81 205.372 1170.73 200.187 1163.91 197.031C1151.7 191.376 1121.17 177.139 1150.13 164.681C1167.6 157.162 1186.62 152.396 1207.2 150.383C1226.48 148.503 1243.42 147.548 1258.01 147.517C1258.53 147.517 1258.96 147.717 1259.28 148.115C1274.9 166.933 1288.28 183.821 1299.42 198.778C1341.06 254.681 1381.27 313.798 1420.06 376.127C1422.94 380.786 1425.44 383.529 1425.48 389.429C1425.49 390.655 1425.98 391.625 1426.95 392.34C1427.37 392.647 1427.62 393.061 1427.69 393.582C1429.47 405.81 1430.59 418.096 1431.05 430.437C1431.71 448.32 1437.33 448.642 1452.49 450.818C1453.32 450.931 1453.37 451.186 1452.63 451.585C1442.88 456.917 1435.45 470.97 1445.27 480.119C1453.78 488.041 1472.62 488.378 1476.34 475.046C1476.39 474.908 1476.47 474.788 1476.59 474.707C1476.71 474.625 1476.86 474.588 1477 474.601C1477.14 474.613 1477.28 474.675 1477.38 474.776C1477.49 474.876 1477.55 475.01 1477.57 475.153C1481.63 518.491 1477.82 561.721 1480.13 612.797C1480.68 624.72 1482.94 665.835 1500.98 665.345C1528.29 664.594 1522.21 612.184 1519.43 594.791C1513.58 558.186 1503.3 522.899 1488.61 488.93C1488.57 488.843 1488.51 488.771 1488.43 488.722C1488.35 488.674 1488.25 488.653 1488.16 488.661C1488.06 488.67 1487.98 488.708 1487.9 488.77C1487.83 488.832 1487.78 488.915 1487.76 489.007C1487.67 489.497 1487.75 490.033 1488.01 490.616C1497.14 511.804 1504.48 533.555 1510.05 555.867C1516.38 581.229 1520.87 605.549 1520.69 630.788C1520.6 642.021 1516.18 665.989 1499.55 664.012C1483.06 662.035 1481.68 619.08 1481.31 607.357C1480.43 578.915 1480.26 550.463 1480.8 522C1481.13 504.561 1480.23 487.229 1478.09 470.004C1478.09 469.972 1478.1 469.94 1478.11 469.913C1478.13 469.886 1478.16 469.866 1478.19 469.857C1478.22 469.848 1478.25 469.85 1478.28 469.863C1478.31 469.876 1478.34 469.899 1478.35 469.928L1484.04 481.391C1484.29 481.912 1484.2 482.366 1483.76 482.754C1479.53 486.432 1484.85 490.815 1487.81 487.903C1487.99 487.727 1488.22 487.606 1488.46 487.557C1488.71 487.508 1488.97 487.532 1489.2 487.627C1489.43 487.721 1489.63 487.882 1489.77 488.089C1489.92 488.296 1490 488.541 1490 488.792C1490.08 491.786 1491.41 493.921 1493.97 495.198C1494.48 495.443 1494.74 495.852 1494.75 496.424L1494.82 499.627C1494.82 499.776 1494.85 499.924 1494.92 500.06C1494.98 500.195 1495.07 500.317 1495.18 500.416C1495.29 500.515 1495.42 500.59 1495.56 500.636C1495.7 500.683 1495.85 500.699 1496 500.684L1499.67 500.347C1500.17 500.306 1500.38 500.531 1500.32 501.021L1500.12 502.814C1500.1 502.967 1500.11 503.122 1500.15 503.271C1500.2 503.419 1500.27 503.558 1500.37 503.68C1500.46 503.801 1500.58 503.902 1500.72 503.977C1500.86 504.052 1501.01 504.099 1501.16 504.117C1507.54 504.842 1513.71 504.05 1519.66 501.741C1520.22 501.527 1520.62 501.149 1520.87 500.607L1523.6 494.983C1523.95 494.278 1524.34 494.253 1524.77 494.907C1525.13 495.438 1525.15 496.061 1524.83 496.776C1523.67 499.392 1522.01 501.43 1519.85 502.891C1519.66 503.018 1519.51 503.187 1519.41 503.385C1519.31 503.583 1519.26 503.803 1519.26 504.024C1519.26 504.246 1519.32 504.463 1519.43 504.656C1519.54 504.848 1519.69 505.01 1519.88 505.128C1525.55 508.755 1531.54 511.789 1537.84 514.231C1538.51 514.487 1539.24 514.48 1539.9 514.212C1540.55 513.944 1541.08 513.435 1541.37 512.79L1545.69 503.243C1545.79 503.062 1545.95 502.923 1546.15 502.854C1546.34 502.786 1546.55 502.793 1546.74 502.873C1546.93 502.954 1547.09 503.102 1547.17 503.29C1547.26 503.477 1547.27 503.69 1547.21 503.887L1542.95 514.553C1542.92 514.624 1542.91 514.7 1542.91 514.777C1542.91 514.854 1542.93 514.929 1542.96 514.998C1543 515.067 1543.04 515.129 1543.1 515.179C1543.16 515.229 1543.23 515.266 1543.3 515.288C1548.65 516.892 1554.01 517.633 1559.4 517.51C1561.49 517.469 1563.58 516.805 1565.65 515.518C1573.25 510.839 1581.08 506.574 1589.14 502.722C1602.9 496.133 1611.7 490.493 1621.85 481.069C1621.92 481.014 1622 480.985 1622.09 480.988C1622.18 480.991 1622.26 481.025 1622.33 481.084C1622.39 481.144 1622.43 481.224 1622.44 481.311C1622.45 481.398 1622.43 481.486 1622.38 481.559C1617.25 488.404 1610.06 494.243 1600.8 499.075C1591.13 504.122 1580.59 509.107 1569.16 514.031C1567.12 514.91 1566.31 516.437 1566.74 518.614C1567.78 523.977 1567.18 530.214 1569.04 535.179C1571.47 541.656 1575.52 546.974 1581.19 551.132C1581.32 551.223 1581.46 551.283 1581.61 551.31C1581.76 551.337 1581.92 551.328 1582.07 551.285L1616.28 541.171C1617.41 540.834 1617.64 541.151 1616.97 542.121C1616.47 542.847 1615.81 543.337 1615 543.592C1605.77 546.463 1596.11 549.16 1586.02 551.684C1584.57 552.051 1583.69 552.966 1583.37 554.427L1581.12 564.863C1581.01 565.368 1581.09 565.895 1581.33 566.349L1587.28 576.892C1587.4 577.1 1587.57 577.268 1587.78 577.374C1587.99 577.481 1588.23 577.521 1588.46 577.49C1598.56 576.101 1608.32 573.592 1617.74 569.966C1618.09 569.823 1618.35 569.818 1618.54 569.95C1618.8 570.165 1618.78 570.344 1618.48 570.487C1608.82 574.961 1598.69 577.807 1588.08 579.022C1583.36 579.574 1576.09 595.435 1573.91 599.634C1570.94 605.38 1570.77 609.549 1575.43 614.069C1575.63 614.263 1575.77 614.513 1575.83 614.787C1575.88 615.061 1575.85 615.346 1575.74 615.602C1574.74 617.829 1573.09 619.428 1570.8 620.398C1570.6 620.479 1570.44 620.626 1570.34 620.816C1570.23 621.006 1570.2 621.226 1570.23 621.44C1572.66 635.263 1566.25 644.565 1561.48 656.303C1561.44 656.373 1561.44 656.453 1561.46 656.528C1561.48 656.603 1561.54 656.665 1561.6 656.702C1561.67 656.738 1561.75 656.746 1561.83 656.723C1561.9 656.7 1561.97 656.648 1562 656.579C1567.06 648.927 1570.44 640.576 1572.14 631.524C1572.66 628.725 1573.52 626.191 1574.73 623.923C1577.32 619.065 1580.27 614.376 1576.7 609.901C1576.54 609.708 1576.43 609.478 1576.38 609.233C1576.33 608.987 1576.34 608.732 1576.41 608.491C1578.47 601.34 1580.83 594.362 1583.49 587.558C1585 583.747 1587.36 581.285 1590.58 580.172C1590.92 580.054 1591.28 580.024 1591.64 580.086C1591.99 580.147 1592.33 580.298 1592.61 580.524C1592.89 580.75 1593.11 581.044 1593.25 581.379C1593.39 581.714 1593.45 582.079 1593.41 582.44C1592.75 588.672 1592.29 594.515 1592.03 599.971C1591.71 607.051 1595.11 617.288 1601.86 621.716C1602.42 622.094 1602.83 621.967 1603.08 621.333L1615.18 591.987C1615.21 591.908 1615.26 591.843 1615.34 591.802C1615.41 591.761 1615.49 591.747 1615.58 591.761C1615.66 591.775 1615.74 591.817 1615.8 591.881C1615.85 591.944 1615.89 592.025 1615.9 592.109C1616.18 595.808 1616.14 599.506 1615.79 603.204C1614.5 617.18 1601.95 627.325 1604.62 642.128C1604.65 642.3 1604.63 642.477 1604.56 642.638C1604.49 642.798 1604.38 642.935 1604.23 643.032C1604.09 643.128 1603.92 643.18 1603.74 643.18C1603.57 643.18 1603.4 643.129 1603.25 643.033C1602.47 642.542 1601.91 641.781 1601.6 640.749C1598.02 629.419 1593.4 618.534 1587.72 608.093C1587.38 607.47 1587.15 606.8 1587.04 606.085C1586.9 605.196 1586.64 604.154 1586.9 603.281C1588.21 599.031 1589.38 594.005 1590.42 588.202C1590.48 587.879 1590.42 587.547 1590.25 587.265C1590.09 586.983 1589.82 586.77 1589.51 586.666C1589.2 586.562 1588.87 586.573 1588.56 586.697C1588.26 586.822 1588.01 587.051 1587.86 587.344C1581.36 600.216 1583.91 612.261 1581.61 625.793C1580.17 634.252 1587.51 643.37 1592.31 649.009C1592.65 649.418 1592.8 649.893 1592.77 650.434C1592.43 655.92 1590.15 660.375 1585.92 663.797C1585.53 664.107 1585.07 664.301 1584.58 664.356C1584.09 664.41 1583.6 664.322 1583.16 664.104C1579.54 662.311 1582.13 651.982 1582.38 648.932C1582.4 648.65 1582.35 648.367 1582.23 648.11C1582.11 647.854 1581.93 647.632 1581.7 647.467C1581.46 647.302 1581.19 647.199 1580.91 647.168C1580.63 647.138 1580.34 647.181 1580.08 647.293C1575.83 649.147 1561.59 656.993 1562.48 662.54C1563.76 670.53 1565.01 678.984 1566.23 687.902C1566.47 689.588 1565.74 690.508 1564.04 690.661L1556.27 691.396C1556.19 691.407 1556.11 691.446 1556.05 691.506C1555.99 691.566 1555.95 691.645 1555.94 691.729C1555.93 691.813 1555.95 691.898 1555.99 691.971C1556.03 692.044 1556.1 692.1 1556.18 692.132C1556.48 692.244 1556.84 692.316 1557.25 692.347C1578.23 693.991 1599.02 694.293 1619.62 693.251C1619.79 693.239 1619.95 693.175 1620.08 693.067C1620.21 692.959 1620.3 692.812 1620.34 692.649C1620.38 692.485 1620.37 692.313 1620.31 692.157C1620.25 692.001 1620.14 691.869 1619.99 691.779L1613.59 688.056C1613.4 687.949 1613.25 687.793 1613.15 687.604C1613.04 687.415 1612.99 687.2 1613 686.983C1613.19 682.631 1612.75 678.401 1611.68 674.294C1609.06 664.196 1610.24 653.055 1611.79 643.048C1611.93 642.124 1612.43 641.291 1613.17 640.73C1613.92 640.168 1614.85 639.922 1615.78 640.044C1622.46 640.902 1629.09 640.632 1635.67 639.232C1636.21 639.12 1636.76 639.211 1637.23 639.486C1637.69 639.762 1638.03 640.202 1638.19 640.719C1639.1 643.732 1639.35 646.94 1638.94 650.342C1638.54 653.622 1638.31 654.434 1634.74 655.001C1630.97 655.583 1627.21 656.074 1623.47 656.472C1622.84 656.536 1622.24 656.783 1621.74 657.183C1621.25 657.584 1620.88 658.119 1620.68 658.725C1618.21 666.31 1618.52 674.54 1615.82 681.911C1615.75 682.119 1615.71 682.34 1615.72 682.562C1615.73 682.783 1615.79 683 1615.88 683.199C1615.98 683.399 1616.11 683.578 1616.27 683.725C1616.44 683.872 1616.63 683.984 1616.83 684.056C1619.9 685.098 1622.56 686.784 1624.81 689.113C1624.9 689.211 1625.02 689.288 1625.15 689.34C1625.28 689.391 1625.42 689.415 1625.56 689.411C1625.69 689.407 1625.83 689.374 1625.95 689.315C1626.08 689.255 1626.19 689.171 1626.28 689.067L1627.49 687.673C1627.57 687.577 1627.68 687.509 1627.8 687.477C1627.92 687.445 1628.04 687.451 1628.16 687.494C1628.28 687.538 1628.38 687.616 1628.46 687.719C1628.53 687.822 1628.57 687.945 1628.58 688.071C1628.78 696.239 1612.37 695.886 1606.5 695.994C1598.4 696.137 1586.68 695.703 1571.35 694.691C1560.15 693.956 1549.66 694.722 1538.69 695.319C1537.94 695.36 1537.35 695.462 1536.91 695.626C1536.74 695.684 1536.59 695.792 1536.48 695.936C1536.38 696.08 1536.31 696.253 1536.31 696.434C1536.3 696.614 1536.34 696.794 1536.44 696.951C1536.53 697.107 1536.67 697.233 1536.83 697.312C1540.32 698.977 1544.12 699.544 1548.25 699.013C1557.39 697.817 1568.13 696.76 1574.82 701.051C1574.99 701.166 1575.12 701.33 1575.2 701.522C1575.28 701.714 1575.3 701.925 1575.25 702.127C1575.21 702.329 1575.1 702.513 1574.95 702.655C1574.8 702.797 1574.61 702.889 1574.4 702.92C1569.02 703.656 1564.73 704.637 1561.53 705.863C1553.86 708.805 1554.05 709.449 1562.09 707.793C1565.45 707.104 1571.89 705.832 1576.07 707.257C1576.58 707.428 1577.01 707.748 1577.33 708.174C1577.64 708.6 1577.82 709.111 1577.84 709.641C1577.85 710.17 1577.71 710.692 1577.42 711.137C1577.13 711.581 1576.72 711.928 1576.23 712.13C1569.16 715.042 1560.9 715.134 1553.42 716.513C1552.85 716.615 1552.66 716.942 1552.85 717.494C1552.99 717.903 1553.25 718.102 1553.62 718.092C1559.56 717.805 1565.75 717.877 1572.21 718.306C1572.65 718.333 1573.07 718.485 1573.42 718.746C1573.77 719.006 1574.04 719.363 1574.2 719.773C1574.35 720.183 1574.38 720.628 1574.29 721.056C1574.2 721.484 1573.98 721.875 1573.67 722.183C1572.07 723.792 1568.64 723.93 1566.23 724.083C1556.36 724.727 1546.52 724.38 1536.71 723.041C1533.11 722.551 1529.06 723.062 1524.55 724.574C1524.42 724.625 1524.32 724.722 1524.26 724.846C1524.19 724.97 1524.18 725.113 1524.22 725.247C1524.25 725.382 1524.34 725.498 1524.45 725.574C1524.57 725.651 1524.71 725.682 1524.84 725.662C1532.6 724.313 1541.43 729.079 1547.49 728.88C1557.47 728.563 1567.43 727.894 1577.36 726.872C1578.87 726.719 1580.09 726.791 1581.01 727.087C1581.26 727.167 1581.48 727.323 1581.63 727.534C1581.79 727.745 1581.87 728 1581.87 728.261C1581.88 728.523 1581.8 728.779 1581.64 728.992C1581.49 729.205 1581.27 729.364 1581.03 729.447C1570.6 733.14 1561.25 731.96 1551.64 739.193C1551.56 739.253 1551.5 739.34 1551.47 739.439C1551.45 739.538 1551.46 739.643 1551.5 739.736C1551.55 739.829 1551.62 739.905 1551.72 739.952C1551.81 739.998 1551.92 740.012 1552.02 739.99C1558.39 738.473 1564 737.354 1570.56 737.216C1575.92 737.094 1581.28 736.874 1586.62 736.557C1587.1 736.528 1587.57 736.369 1587.97 736.098C1589.79 734.841 1591.13 734.208 1592 734.197C1599.93 734.085 1614.04 734.652 1634.34 735.899C1634.62 735.909 1634.79 736.006 1634.85 736.19C1634.87 736.241 1634.88 736.297 1634.89 736.358C1634.9 736.471 1634.84 736.532 1634.71 736.542C1631.56 736.685 1629.48 736.9 1628.47 737.186C1624.39 738.34 1624.47 738.938 1628.71 738.979C1643.38 739.091 1657.98 738.182 1672.53 736.251C1672.81 736.21 1672.99 736.093 1673.05 735.899C1673.16 735.582 1673.05 735.418 1672.71 735.408L1670.5 735.332C1670.23 735.324 1669.97 735.222 1669.77 735.043C1669.57 734.865 1669.44 734.62 1669.4 734.354C1669.36 734.087 1669.41 733.815 1669.55 733.585C1669.69 733.354 1669.91 733.181 1670.16 733.094C1678.02 730.326 1685.54 728.681 1692.73 728.16C1700.31 727.608 1717.3 726.898 1743.7 726.03C1743.83 726.03 1743.89 725.963 1743.88 725.83C1743.86 725.422 1743.87 725.371 1743.91 725.677C1743.92 725.769 1743.88 725.815 1743.79 725.815L1688.13 723.455C1688.06 723.453 1687.99 723.433 1687.93 723.396C1687.87 723.359 1687.82 723.308 1687.78 723.245C1687.74 723.183 1687.72 723.112 1687.72 723.039C1687.72 722.966 1687.73 722.893 1687.76 722.827C1687.89 722.592 1688.04 722.479 1688.24 722.49C1690.98 722.622 1693.31 722.301 1695.23 721.524C1695.54 721.401 1695.81 721.173 1695.98 720.879C1696.15 720.585 1696.22 720.241 1696.17 719.905C1696.12 719.569 1695.96 719.259 1695.71 719.027C1695.46 718.795 1695.14 718.654 1694.8 718.628C1687.87 717.974 1682.86 717.315 1679.78 716.651C1674.46 715.517 1674.56 715.011 1680.08 715.134C1690.03 715.348 1699.91 714.746 1709.74 713.326C1710.2 713.254 1710.25 713.08 1709.88 712.805C1709.58 712.575 1698.03 712.759 1695.53 712.36C1695.41 712.343 1695.29 712.284 1695.2 712.193C1695.11 712.101 1695.05 711.982 1695.03 711.853C1695.01 711.724 1695.04 711.592 1695.1 711.476C1695.16 711.361 1695.26 711.268 1695.38 711.211L1697.01 710.445C1697.1 710.401 1697.17 710.328 1697.22 710.237C1697.26 710.146 1697.28 710.043 1697.26 709.943C1697.24 709.843 1697.19 709.752 1697.11 709.685C1697.04 709.618 1696.94 709.578 1696.84 709.571L1681.02 708.33C1680.86 708.314 1680.71 708.243 1680.6 708.129C1680.48 708.015 1680.41 707.866 1680.4 707.706C1680.39 707.547 1680.43 707.387 1680.52 707.255C1680.61 707.123 1680.74 707.026 1680.9 706.981C1692.66 703.733 1704.61 701.791 1716.75 701.158C1716.85 701.152 1716.95 701.12 1717.04 701.064C1717.13 701.008 1717.2 700.931 1717.24 700.841C1717.29 700.75 1717.31 700.65 1717.31 700.549C1717.3 700.449 1717.27 700.352 1717.21 700.269C1716.84 699.733 1715.83 699.135 1715.13 699.089C1706.21 698.64 1697.06 698.379 1687.66 698.308C1687.35 698.31 1687.05 698.215 1686.8 698.037C1686.56 697.86 1686.37 697.608 1686.28 697.318C1686.18 697.028 1686.18 696.716 1686.27 696.425C1686.37 696.135 1686.55 695.882 1686.8 695.703L1689.62 693.588C1689.71 693.52 1689.77 693.426 1689.81 693.319C1689.84 693.211 1689.84 693.096 1689.8 692.989C1689.77 692.882 1689.7 692.789 1689.61 692.724C1689.52 692.658 1689.41 692.622 1689.3 692.622L1682.9 692.546C1682.21 692.546 1681.99 692.224 1682.24 691.58L1682.44 691.059C1682.6 690.681 1682.88 690.477 1683.3 690.446C1690.06 689.956 1696.81 689.772 1703.57 689.895C1705.01 689.925 1706.13 689.787 1706.92 689.481C1707.19 689.375 1707.4 689.183 1707.54 688.937C1707.68 688.69 1707.73 688.404 1707.68 688.126C1707.64 687.847 1707.5 687.593 1707.29 687.404C1707.08 687.216 1706.81 687.105 1706.53 687.09L1688.04 686.416C1687.85 686.409 1687.67 686.363 1687.5 686.282C1687.34 686.202 1687.19 686.087 1687.07 685.946C1686.95 685.805 1686.86 685.641 1686.8 685.463C1686.75 685.285 1686.73 685.099 1686.75 684.914C1687.58 677.722 1688.18 670.673 1688.54 663.766C1688.93 656.671 1685.13 655.951 1681.14 651.982C1677.41 648.284 1673.59 644.284 1669.67 639.983C1669.41 639.706 1669.25 639.343 1669.24 638.96C1669.22 638.577 1669.34 638.201 1669.57 637.9C1669.81 637.598 1670.15 637.392 1670.52 637.318C1670.9 637.245 1671.29 637.31 1671.62 637.5C1676.43 640.136 1681.89 648.902 1685.51 653.3C1686.01 653.913 1686.36 653.841 1686.57 653.085C1688.22 647.191 1690.69 641.658 1693.96 636.489C1694.25 636.019 1694.39 635.508 1694.37 634.957C1694.12 628.076 1691.92 620.935 1693.17 614.284C1693.99 610.054 1695.32 605.718 1694.89 601.534C1694.37 596.37 1691.5 579.789 1684.16 580.202C1684.04 580.209 1683.92 580.243 1683.82 580.302C1683.71 580.36 1683.62 580.442 1683.55 580.54C1683.48 580.639 1683.43 580.752 1683.41 580.871C1683.39 580.99 1683.39 581.112 1683.42 581.229C1685.45 588.493 1687.69 595.665 1690.14 602.745C1691.72 607.311 1692.15 611.265 1691.58 615.724C1691.56 615.869 1691.49 616.001 1691.38 616.097C1691.27 616.193 1691.13 616.247 1690.98 616.249C1690.83 616.251 1690.69 616.2 1690.58 616.107C1690.47 616.014 1690.39 615.883 1690.37 615.74C1688.38 603.833 1683.76 592.293 1680.48 580.647C1680.01 578.992 1680.11 577.516 1680.79 576.218C1680.9 575.998 1681.09 575.825 1681.32 575.732C1681.55 575.639 1681.81 575.632 1682.04 575.712C1693.91 579.712 1694.71 587.573 1696.36 598.607C1696.37 598.741 1696.43 598.867 1696.53 598.956C1696.63 599.045 1696.76 599.09 1696.9 599.082C1697.03 599.074 1697.16 599.013 1697.25 598.912C1697.29 598.862 1697.33 598.805 1697.35 598.742C1697.37 598.679 1697.38 598.612 1697.37 598.546C1697.68 581.883 1695.87 565.45 1691.95 549.247C1691.93 549.172 1691.89 549.104 1691.84 549.053C1691.78 549.001 1691.71 548.97 1691.63 548.963C1691.56 548.956 1691.48 548.974 1691.42 549.014C1691.35 549.054 1691.3 549.115 1691.27 549.186L1689.91 552.297C1689.82 552.493 1689.67 552.658 1689.49 552.772C1689.31 552.886 1689.1 552.945 1688.88 552.94C1683.98 552.879 1677.49 551.99 1672.83 553.032C1672.56 553.096 1672.32 553.242 1672.13 553.451C1671.94 553.66 1671.83 553.921 1671.8 554.199C1671.77 554.476 1671.83 554.756 1671.96 555C1672.1 555.244 1672.3 555.44 1672.56 555.561C1678.15 558.176 1681.58 562.666 1682.87 569.031C1683.01 569.674 1682.74 570.257 1682.09 570.778C1681.8 571.013 1681.63 570.941 1681.55 570.563C1680.48 564.786 1669.98 559.039 1664.54 555.929C1664.23 555.75 1663.98 555.486 1663.81 555.168C1663.64 554.85 1663.57 554.492 1663.6 554.135C1663.63 553.778 1663.76 553.437 1663.98 553.152C1664.2 552.867 1664.49 552.65 1664.83 552.526C1671.61 550.085 1678.99 548.91 1687 549.002C1690.77 549.043 1692.8 547.076 1693.1 543.102C1693.9 532.303 1693.36 521.602 1691.46 510.997C1691.34 510.364 1690.99 510.149 1690.38 510.354L1688.5 510.967C1688.03 511.12 1687.69 510.972 1687.49 510.522C1685.36 505.925 1674.46 499.841 1670.04 496.853C1669.84 496.72 1669.69 496.53 1669.61 496.308C1669.52 496.087 1669.5 495.844 1669.55 495.612C1669.61 495.38 1669.73 495.169 1669.9 495.008C1670.08 494.847 1670.3 494.742 1670.53 494.707L1677.35 493.665C1677.55 493.637 1677.73 493.567 1677.9 493.459C1678.06 493.352 1678.2 493.21 1678.3 493.044C1678.41 492.878 1678.47 492.691 1678.5 492.497C1678.52 492.302 1678.5 492.105 1678.44 491.918L1676.16 484.869C1676.11 484.704 1676.12 484.527 1676.18 484.366C1676.24 484.204 1676.35 484.066 1676.49 483.97C1676.63 483.875 1676.8 483.827 1676.97 483.835C1677.15 483.842 1677.31 483.904 1677.45 484.011C1682.37 488.133 1685.43 499.673 1687.41 505.802C1687.47 505.986 1687.57 506.15 1687.72 506.293C1687.95 506.517 1688.09 506.64 1688.15 506.66C1688.96 506.987 1689.35 506.712 1689.3 505.833C1688.22 490.1 1686.65 474.397 1684.57 458.726C1684.02 454.573 1684.6 451.876 1680.59 449.301C1680.01 448.923 1680.01 448.561 1680.6 448.213C1683.09 446.732 1684.3 445.031 1684.25 443.11C1683.69 422.974 1677.05 392.264 1659.88 380.096C1645.13 369.66 1632.75 378.012 1620.74 388.678C1620.62 388.785 1620.46 388.842 1620.3 388.838C1620.13 388.834 1619.98 388.769 1619.86 388.656C1619.74 388.544 1619.67 388.391 1619.66 388.228C1619.64 388.064 1619.69 387.903 1619.79 387.774C1624.62 381.756 1630.73 377.19 1638.13 374.074C1648.54 369.706 1656.92 374.916 1664.28 381.874C1664.51 382.099 1664.79 382.273 1665.1 382.386C1665.41 382.499 1665.73 382.549 1666.06 382.532C1666.39 382.515 1666.71 382.431 1667 382.286C1667.3 382.142 1667.56 381.939 1667.77 381.69C1671.88 376.847 1664.91 373.154 1661.29 371.913C1656.34 370.217 1651.48 368.296 1646.7 366.151C1646.2 365.926 1645.45 365.86 1644.47 365.952C1643.86 366.003 1643.14 366.202 1642.31 366.549C1637.99 368.358 1633.5 369.124 1628.84 368.848C1628.53 368.828 1628.25 368.7 1628.03 368.487C1627.81 368.275 1627.67 367.992 1627.64 367.688C1627.61 367.384 1627.69 367.08 1627.87 366.829C1628.04 366.578 1628.3 366.398 1628.59 366.319C1633.9 364.91 1639.45 363.53 1645.24 362.182C1647.68 361.62 1650.35 362.539 1653.26 364.94C1657.12 368.128 1661.42 370.881 1666.16 373.2C1666.43 373.327 1666.73 373.361 1667.02 373.297C1667.31 373.233 1667.56 373.075 1667.75 372.847C1667.94 372.62 1668.04 372.336 1668.05 372.042C1668.06 371.748 1667.96 371.459 1667.79 371.223C1664.88 367.438 1662.24 364.496 1659.65 359.96C1648.5 340.36 1624.97 337.556 1613.06 359.24C1612.83 359.669 1612.75 360.123 1612.83 360.603L1613.37 363.776C1613.38 363.824 1613.39 363.874 1613.38 363.924C1613.38 363.974 1613.36 364.023 1613.34 364.067C1613.31 364.111 1613.28 364.15 1613.24 364.182C1613.2 364.213 1613.16 364.237 1613.11 364.251C1613.06 364.265 1613.01 364.269 1612.96 364.264C1612.91 364.258 1612.86 364.243 1612.82 364.219C1612.77 364.195 1612.74 364.162 1612.7 364.123C1612.67 364.083 1612.65 364.038 1612.63 363.99C1611.47 361.283 1610.37 358.09 1609.32 354.412C1609.24 354.106 1609.29 353.856 1609.46 353.661C1609.8 353.314 1610 353.38 1610.06 353.861C1610.17 354.739 1610.61 355.383 1611.38 355.792C1612.03 356.149 1612.31 355.96 1612.21 355.225C1611.67 351.373 1612.29 347.879 1614.04 344.743C1617.42 338.766 1618.37 335.533 1618.64 329.28C1618.66 329.046 1618.6 328.814 1618.49 328.611C1618.38 328.407 1618.22 328.241 1618.02 328.131L1613.94 325.786C1612.96 325.224 1612.58 325.5 1612.8 326.614C1614.06 332.973 1610.7 344.681 1602.18 342.306C1601.74 342.179 1601.36 341.881 1601.14 341.479C1599.94 339.323 1599.57 337.024 1600.03 334.583C1600.05 334.448 1600.12 334.325 1600.22 334.241C1600.33 334.156 1600.46 334.116 1600.59 334.13C1600.73 334.145 1600.85 334.212 1600.94 334.317C1601.02 334.421 1601.06 334.556 1601.05 334.69C1600.97 336.958 1601.67 338.935 1603.15 340.62C1603.38 340.886 1603.71 341.054 1604.06 341.091C1604.41 341.128 1604.76 341.031 1605.05 340.82L1609.95 337.08C1610.24 336.858 1610.49 336.577 1610.66 336.254C1610.83 335.932 1610.94 335.576 1610.96 335.211C1610.99 334.847 1610.93 334.481 1610.8 334.14C1610.67 333.799 1610.47 333.49 1610.21 333.234L1607.39 330.445C1607.31 330.357 1607.26 330.239 1607.25 330.116C1607.25 329.993 1607.29 329.874 1607.38 329.781C1607.46 329.688 1607.57 329.63 1607.69 329.616C1607.81 329.603 1607.94 329.636 1608.04 329.709L1609.57 330.951C1609.68 331.039 1609.81 331.096 1609.95 331.115C1610.09 331.135 1610.23 331.115 1610.36 331.06C1610.49 331.004 1610.6 330.915 1610.68 330.801C1610.76 330.687 1610.8 330.553 1610.81 330.414L1610.98 327.717C1611.06 326.878 1610.8 326.042 1610.26 325.394C1609.72 324.746 1608.94 324.339 1608.1 324.262C1607.27 324.184 1606.43 324.444 1605.78 324.983C1605.13 325.521 1604.73 326.296 1604.65 327.135L1604.33 329.74C1604.31 329.859 1604.26 329.971 1604.18 330.059C1604.1 330.147 1603.99 330.208 1603.87 330.233C1603.75 330.258 1603.63 330.247 1603.52 330.199C1603.41 330.152 1603.32 330.072 1603.25 329.97C1600.66 325.556 1605.68 322.767 1609.43 324.591C1609.6 324.662 1609.79 324.67 1609.96 324.615C1610.14 324.559 1610.28 324.444 1610.38 324.288C1610.48 324.133 1610.51 323.948 1610.49 323.768C1610.46 323.587 1610.37 323.423 1610.23 323.304C1606.73 320.596 1602.97 318.88 1598.93 318.155C1598.72 318.114 1598.57 317.971 1598.49 317.726C1598.36 317.358 1598.49 317.22 1598.85 317.312C1600.49 317.7 1602.11 318.073 1603.71 318.431C1609.11 319.672 1614.66 323.84 1619.29 326.813C1619.39 326.878 1619.5 326.915 1619.62 326.918C1619.74 326.922 1619.86 326.893 1619.96 326.834C1620.06 326.776 1620.15 326.69 1620.2 326.586C1620.26 326.482 1620.29 326.364 1620.28 326.246C1619.52 304.256 1604.42 290.111 1582.7 289.161C1570.31 288.609 1563.06 293.099 1556.94 303.474C1555.34 306.212 1554.59 308.638 1554.71 310.753C1554.74 311.346 1555.05 311.591 1555.64 311.489C1565.13 309.915 1574.42 310.809 1583.51 314.17C1583.61 314.211 1583.7 314.284 1583.75 314.377C1583.81 314.47 1583.83 314.579 1583.82 314.687C1583.81 314.796 1583.77 314.898 1583.7 314.979C1583.62 315.06 1583.52 315.115 1583.42 315.136C1571.38 317.389 1558.97 314.508 1547.15 312.439C1542.52 311.621 1538.61 312.847 1535.42 316.117C1531.1 320.545 1531.84 326.951 1539.06 327.641C1544.96 328.202 1550.86 328.075 1556.74 327.257C1557.08 327.206 1557.33 327.339 1557.48 327.656L1559.83 332.575C1559.95 332.838 1560 333.131 1559.96 333.417C1559.92 333.704 1559.8 333.971 1559.61 334.184L1555.47 338.873C1555.28 339.091 1555.14 339.354 1555.06 339.639C1554.99 339.924 1554.98 340.223 1555.04 340.513C1555.55 342.863 1556.91 344.549 1559.12 345.57C1559.74 345.856 1559.81 346.239 1559.32 346.719C1555.52 350.469 1555.65 354.034 1559.72 357.416C1560.12 357.743 1560.2 358.136 1559.98 358.596C1558.36 361.906 1559.17 364.046 1562.39 365.017C1562.63 365.096 1562.85 365.257 1562.99 365.475C1563.14 365.692 1563.21 365.952 1563.18 366.212L1562.75 371.101C1562.7 371.622 1562.87 372.066 1563.24 372.434C1569.01 377.997 1575.57 372.97 1581.85 376.142C1582.1 376.272 1582.31 376.468 1582.46 376.708C1582.61 376.949 1582.68 377.225 1582.68 377.506L1582.64 384.402C1582.64 384.842 1582.83 385.163 1583.23 385.368C1585.69 386.604 1586.65 388.678 1586.12 391.589C1586.09 391.719 1586.1 391.854 1586.15 391.978C1586.19 392.103 1586.27 392.214 1586.37 392.299C1586.47 392.385 1586.6 392.442 1586.73 392.465C1586.86 392.489 1587 392.477 1587.13 392.432C1594.14 389.899 1600.02 385.766 1604.79 380.035C1605.01 379.759 1605.19 379.79 1605.34 380.127C1605.43 380.362 1605.43 380.53 1605.34 380.632C1599.95 386.66 1593.62 391.589 1586.33 395.42C1586 395.591 1585.63 395.67 1585.26 395.648C1584.89 395.626 1584.53 395.504 1584.23 395.294C1583.92 395.085 1583.68 394.797 1583.52 394.461C1583.36 394.124 1583.3 393.751 1583.34 393.382L1583.89 388.586C1583.95 387.973 1583.74 387.477 1583.26 387.099L1581.85 385.981C1581.69 385.859 1581.57 385.701 1581.49 385.522C1581.41 385.342 1581.38 385.147 1581.39 384.954L1581.76 381.291C1581.78 381.126 1581.74 380.961 1581.67 380.814C1581.59 380.667 1581.48 380.544 1581.33 380.461C1581.19 380.377 1581.03 380.336 1580.86 380.342C1580.69 380.348 1580.53 380.401 1580.4 380.495C1576.35 383.33 1569.65 389.766 1575.6 394.195C1576.09 394.562 1576.03 394.808 1575.43 394.93C1566.26 396.723 1551.76 399.144 1549.97 408.14C1548.73 414.377 1541.8 416.967 1537.58 419.986C1537.48 420.059 1537.4 420.154 1537.34 420.262C1537.27 420.371 1537.24 420.491 1537.22 420.614C1537.21 420.738 1537.23 420.862 1537.27 420.978C1537.31 421.094 1537.37 421.2 1537.46 421.288L1542.55 426.529C1542.58 426.557 1542.6 426.592 1542.61 426.63C1542.62 426.668 1542.62 426.708 1542.61 426.747C1542.6 426.785 1542.58 426.821 1542.56 426.85C1542.53 426.879 1542.5 426.9 1542.46 426.912C1542.3 426.974 1542.15 427.03 1542 427.081C1541.83 427.132 1541.7 427.101 1541.6 426.989L1537.97 423.096C1537.63 422.718 1537.22 422.453 1536.74 422.3C1533.57 421.257 1525.38 420.215 1526.87 426.207C1528.07 431.121 1529.53 436.137 1531.22 441.256C1531.27 441.416 1531.27 441.589 1531.21 441.748C1531.15 441.906 1531.04 442.041 1530.9 442.129C1530.76 442.218 1530.59 442.255 1530.43 442.236C1530.26 442.216 1530.11 442.141 1530 442.022C1527.74 439.754 1527.04 432.766 1526.53 429.64C1526.43 429.027 1526.09 428.598 1525.52 428.353L1520.71 426.345C1520.56 426.285 1520.41 426.258 1520.26 426.266C1520.1 426.273 1519.95 426.316 1519.82 426.389C1519.68 426.463 1519.56 426.566 1519.47 426.691C1519.38 426.816 1519.32 426.96 1519.3 427.111L1517.9 434.345C1517.86 434.556 1517.75 434.751 1517.6 434.905C1517.45 435.058 1517.26 435.163 1517.04 435.206C1516.83 435.249 1516.62 435.227 1516.42 435.145C1516.22 435.062 1516.05 434.923 1515.94 434.743L1512.14 429.012C1511.85 428.585 1511.42 428.272 1510.93 428.126C1510.43 427.98 1509.9 428.01 1509.43 428.211C1508.96 428.412 1508.57 428.771 1508.33 429.228C1508.09 429.684 1508.02 430.209 1508.12 430.713L1511.89 448.075C1511.92 448.179 1511.9 448.288 1511.85 448.38C1511.8 448.471 1511.72 448.538 1511.62 448.566C1511.41 448.627 1511.28 448.571 1511.22 448.397C1509.62 443.381 1508.41 438.283 1507.58 433.103C1506.7 427.479 1505.15 425.119 1500.62 422.223C1500.39 422.074 1500.13 421.993 1499.85 421.99C1499.58 421.987 1499.3 422.062 1499.07 422.207C1498.84 422.351 1498.65 422.558 1498.53 422.805C1498.41 423.052 1498.36 423.329 1498.39 423.602C1498.82 427.638 1498.01 431.688 1495.98 435.754C1496.01 436.163 1495.88 436.434 1495.6 436.567C1495.55 436.588 1495.49 436.593 1495.43 436.582C1495.38 436.572 1495.33 436.545 1495.29 436.507C1495.25 436.468 1495.22 436.418 1495.2 436.363C1495.19 436.309 1495.19 436.252 1495.21 436.199C1497.48 430.662 1497.1 425.344 1494.06 420.246C1493.91 419.985 1493.67 419.782 1493.39 419.669C1493.11 419.555 1492.8 419.537 1492.5 419.618C1488.97 420.537 1487.52 426.79 1486.35 429.839C1486.32 429.912 1486.27 429.974 1486.21 430.017C1486.14 430.059 1486.06 430.08 1485.98 430.077C1485.9 430.074 1485.83 430.046 1485.77 429.998C1485.7 429.95 1485.66 429.884 1485.63 429.809C1484.79 427.127 1488.84 420.951 1490.22 419.235C1490.38 419.031 1490.46 418.776 1490.45 418.514C1490.44 418.253 1490.33 418.003 1490.16 417.81L1484.24 411.542C1483.77 411.041 1483.32 411.057 1482.89 411.588L1477.77 417.779C1477.74 417.809 1477.71 417.832 1477.68 417.848C1477.64 417.863 1477.6 417.869 1477.56 417.866C1477.52 417.863 1477.49 417.851 1477.45 417.83C1477.42 417.81 1477.39 417.782 1477.37 417.748C1477.28 417.595 1477.19 417.442 1477.11 417.289C1477.02 417.125 1477.03 416.967 1477.14 416.813L1481.3 411.159C1481.43 410.981 1481.49 410.76 1481.47 410.54C1481.44 410.321 1481.34 410.12 1481.17 409.979C1478.49 407.665 1471.16 402.347 1469.74 408.017C1469.63 408.416 1469.77 408.707 1470.14 408.891L1473.91 410.776C1474.18 410.914 1474.4 411.148 1474.52 411.435C1475.81 414.551 1475.21 417.334 1472.73 419.786C1472.03 420.471 1471.86 420.358 1472.2 419.449L1473.88 415.005C1474.06 414.505 1474.04 414.014 1473.81 413.534C1472.77 411.327 1470.95 410.04 1468.34 409.672C1467.82 409.601 1467.46 409.325 1467.25 408.845C1464.45 402.424 1460.82 393.505 1453.41 391.543C1449.05 390.389 1444.78 388.964 1440.6 387.268C1435.68 385.26 1434.02 381.583 1433.5 376.679C1433.44 376.056 1433.1 375.785 1432.47 375.867L1429.61 376.265C1429.35 376.302 1429.1 376.265 1428.87 376.159C1428.63 376.053 1428.44 375.882 1428.3 375.667C1378.77 296.884 1325.93 219.987 1266.43 148.345C1266.04 147.875 1266.15 147.645 1266.76 147.655C1329.38 148.207 1392.31 155.425 1454.33 163.685C1535.29 174.463 1590.36 181.486 1619.53 184.756C1653.24 188.536 1681.53 190.691 1704.41 191.223C1720.62 191.601 1735.88 190.599 1750.2 188.219C1769.83 184.955 1788.15 173.033 1776.2 150.552C1762.38 124.546 1708.3 117.037 1682.57 114.555C1643.6 110.805 1603.55 109.421 1562.43 110.402C1456.25 112.93 1354.32 120.715 1250.58 129.649C1250.34 129.668 1250.1 129.631 1249.87 129.54C1249.65 129.45 1249.45 129.309 1249.29 129.128C1230.57 107.531 1210 87.9411 1187.59 70.3589C1184.25 67.7435 1178.93 64.5101 1171.63 60.6585C1169.64 59.6165 1168.08 60.5053 1166.21 59.6624C1153.32 53.9107 1141.02 49.1907 1129.31 45.5027C1093.83 34.3363 1056.95 25.3153 1018.68 18.4397C969.595 9.61288 920.143 4.05522 870.323 1.76678C829.824 -0.0925863 789.462 1.42964 749.239 6.33345C710.395 11.084 669.39 21.1062 635.114 40.5222C627.459 44.8642 622.498 48.9047 620.229 52.6439C605.375 77.1476 653.831 101.33 670.187 108.011C695.679 118.416 721.539 126.155 748.871 131.779C814.592 145.295 880.303 151.578 946.003 150.628C977.05 150.179 1012.25 148.656 1051.59 146.062C1115.82 141.812 1180 136.908 1244.14 131.35C1244.65 131.309 1245.07 131.483 1245.4 131.871L1257.2 145.51C1257.28 145.599 1257.32 145.709 1257.34 145.826C1257.36 145.943 1257.34 146.062 1257.29 146.169C1257.24 146.276 1257.16 146.366 1257.06 146.428C1256.96 146.491 1256.84 146.523 1256.72 146.521C1231.06 146 1205.75 148.258 1180.78 153.295C1171.49 155.164 1118.85 167.316 1142.61 185.798C1147.6 189.68 1152.97 192.959 1158.72 195.636C1177.07 204.146 1191.58 210.588 1202.24 214.96C1206.59 216.738 1210.13 219.128 1212.88 222.132C1213.06 222.322 1213.19 222.55 1213.26 222.798C1213.32 223.046 1213.33 223.306 1213.28 223.557C1211.9 230.744 1200.34 233.733 1193.71 235.188C1173.92 239.51 1153.92 242.406 1133.71 243.877C1107.26 245.788 1080.78 247.111 1054.27 247.846C998.199 249.409 942.12 249.874 886.036 249.241C790.147 248.158 441.715 232.1 346 228.371ZM346 228.371C38.4999 210.371 -260.459 197.575 61.5767 214.5M346 228.371C93.6189 214.679 61.6362 214.438 61.5767 214.5M346 228.371C93.6189 214.679 345.915 228.367 346 228.371ZM61.5767 214.5C14.0158 211.989 61.5172 214.562 61.5767 214.5Z" stroke="#FBE2B7" stroke-opacity="0.5" stroke-width="2"/>
<path d="M1178.87 67.7757C1203.16 85.7188 1224.03 106.252 1243.9 128.899C1243.97 128.982 1244.02 129.084 1244.04 129.194C1244.06 129.304 1244.05 129.417 1244.01 129.521C1243.97 129.625 1243.9 129.715 1243.81 129.781C1243.72 129.847 1243.61 129.886 1243.5 129.895C1168.27 136.565 1093.07 142.066 1017.91 146.398C996.357 147.634 974.783 148.471 953.189 148.91C883.819 150.33 815.196 143.931 747.318 129.711C721.392 124.276 696.161 116.605 671.625 106.696C650.404 98.1304 589.406 65.5999 638.422 40.3477C688.388 14.6206 744.223 5.42684 799.597 3.31228C860.938 0.972985 921.895 4.4615 982.47 13.7778C1028.59 20.8723 1073.76 29.9588 1118.55 43.1518C1132.95 47.3963 1149.15 52.7286 1161.2 58.2908C1169.74 62.2237 1175.63 65.3853 1178.87 67.7757Z" stroke="#FBE2B7" stroke-opacity="0.5" stroke-width="2"/>
<path d="M1428.55 158.84C1371.46 151.776 1321.28 146.827 1266.02 146.122C1265.51 146.122 1265.1 145.928 1264.77 145.539L1252.36 131.35C1252.3 131.287 1252.26 131.209 1252.25 131.126C1252.24 131.042 1252.25 130.956 1252.28 130.877C1252.31 130.798 1252.37 130.728 1252.44 130.677C1252.51 130.625 1252.59 130.593 1252.68 130.584C1308.59 125.844 1364.54 121.636 1420.54 117.958C1485.82 113.668 1545.7 111.492 1600.17 111.431C1628.6 111.4 1656.42 112.994 1684.43 115.859C1710.53 118.54 1767.42 126.294 1777.5 155.453C1788.59 187.524 1737.88 189.286 1719.96 189.409C1670.12 189.761 1617.89 183.402 1567.23 176.66C1521.03 170.511 1474.8 164.57 1428.55 158.84Z" stroke="#FBE2B7" stroke-opacity="0.5" stroke-width="2"/>
<path d="M1245.02 128.546C1243.59 125.88 1241 123.949 1239.38 121.958C1238.01 120.292 1238.09 120.165 1239.62 121.574C1242.04 123.781 1244.26 126.166 1246.29 128.73C1246.52 129.026 1246.45 129.205 1246.08 129.267C1245.9 129.287 1245.73 129.261 1245.57 129.19C1245.39 129.108 1245.2 128.894 1245.02 128.546Z" stroke="#FBE2B7" stroke-opacity="0.5" stroke-width="2"/>
<path d="M1264.05 150.764C1258.88 144.36 1253.54 138.098 1248.02 131.979C1247.89 131.825 1247.89 131.677 1248.04 131.534L1248.31 131.258C1248.33 131.242 1248.35 131.228 1248.37 131.219C1248.39 131.21 1248.41 131.206 1248.43 131.206C1248.46 131.206 1248.48 131.21 1248.5 131.219C1248.52 131.228 1248.54 131.242 1248.56 131.258C1268.32 153.957 1285.88 175.393 1301.24 195.569C1344.85 252.876 1386.45 313.529 1426.02 377.528C1426.32 378.008 1426.45 378.422 1426.42 378.769C1426.37 379.311 1426.09 379.724 1425.58 380.01C1425.4 380.106 1425.2 380.131 1425.01 380.08C1424.82 380.028 1424.65 379.904 1424.55 379.735C1375.56 300.408 1322.63 223.334 1264.05 150.764Z" stroke="#FBE2B7" stroke-opacity="0.5" stroke-width="2"/>
<path d="M1427.68 386.553C1427 385.603 1426.97 384.852 1427.58 384.301C1427.63 384.257 1427.69 384.225 1427.76 384.209C1427.82 384.192 1427.89 384.192 1427.95 384.207C1428.02 384.222 1428.08 384.252 1428.13 384.295C1428.18 384.338 1428.22 384.393 1428.24 384.454L1428.84 385.925C1428.9 386.075 1428.91 386.241 1428.85 386.393C1428.8 386.545 1428.69 386.671 1428.55 386.749C1428.4 386.826 1428.24 386.849 1428.08 386.813C1427.92 386.777 1427.77 386.684 1427.68 386.553Z" stroke="#FBE2B7" stroke-opacity="0.5" stroke-width="2"/>
<path d="M1430.23 398.076L1429.41 392.468C1429.4 392.412 1429.4 392.354 1429.42 392.299C1429.43 392.243 1429.45 392.191 1429.49 392.146C1429.52 392.1 1429.57 392.062 1429.61 392.033C1429.66 392.004 1429.72 391.985 1429.77 391.978L1430.05 391.947C1431.54 391.73 1433.01 391.85 1434.15 392.281C1435.29 392.712 1435.99 393.418 1436.12 394.245L1436.15 394.46C1436.27 395.289 1435.79 396.169 1434.82 396.908C1433.85 397.646 1432.47 398.182 1430.99 398.398L1430.72 398.444C1430.67 398.453 1430.61 398.45 1430.56 398.436C1430.5 398.422 1430.45 398.397 1430.4 398.363C1430.36 398.329 1430.32 398.286 1430.29 398.237C1430.26 398.187 1430.24 398.133 1430.23 398.076Z" stroke="#FBE2B7" stroke-opacity="0.5" stroke-width="2"/>
<path d="M1492.18 470.783L1476.42 446.313C1476.15 445.904 1476.01 445.454 1475.99 444.964C1475.83 441.486 1468.68 433.242 1466.38 430.101C1464.4 427.404 1460.93 424.723 1459.38 421.26C1459.32 421.109 1459.31 420.942 1459.36 420.787C1459.4 420.632 1459.5 420.498 1459.64 420.407C1459.77 420.317 1459.94 420.277 1460.1 420.292C1460.26 420.308 1460.41 420.379 1460.53 420.493C1466.72 427.062 1472.29 434.146 1477.24 441.746C1477.45 442.068 1477.58 442.443 1477.6 442.834C1477.66 444.229 1477.73 445.363 1478.5 446.604C1483.64 454.939 1488.65 462.938 1493.55 470.599C1493.78 470.962 1493.9 471.383 1493.9 471.813C1493.9 472.243 1493.78 472.665 1493.56 473.03C1493.33 473.395 1493 473.689 1492.62 473.877C1492.23 474.065 1491.8 474.14 1491.37 474.093C1487.57 473.679 1485.35 471.963 1483.22 468.561C1477.24 459.031 1473.09 452.743 1470.75 449.699C1470.19 448.963 1468.85 448.31 1466.75 447.738C1466.3 447.62 1465.93 447.34 1465.69 446.956L1455.52 430.959C1455.25 430.54 1455.17 430.086 1455.29 429.595L1455.59 428.277C1455.62 428.176 1455.61 428.067 1455.57 427.971C1455.52 427.875 1455.45 427.798 1455.35 427.754C1455.26 427.71 1455.15 427.701 1455.05 427.73C1454.94 427.758 1454.86 427.822 1454.8 427.91C1449.97 434.284 1456.73 444.796 1461.03 449.806C1461.42 450.256 1461.32 450.506 1460.73 450.557C1456.64 450.833 1452.71 449.009 1449.23 448.734C1440.82 448.09 1434.62 446.144 1433.79 437.487C1432.73 426.372 1431.89 415.227 1431.29 404.052C1431.25 403.316 1431.52 403.179 1432.09 403.638C1433.26 404.578 1434.62 405.048 1436.16 405.048C1436.31 405.053 1436.45 405.108 1436.56 405.204C1436.66 405.3 1436.74 405.431 1436.76 405.573C1436.78 405.714 1436.75 405.858 1436.68 405.978C1436.6 406.098 1436.48 406.186 1436.35 406.228C1433.86 406.994 1432.89 408.654 1433.44 411.208C1433.56 411.77 1433.9 412.091 1434.46 412.173L1436.98 412.556C1437.5 412.638 1437.65 412.919 1437.42 413.399C1436.48 415.391 1436.81 416.949 1438.42 418.072C1442.84 421.183 1450.08 427.511 1455.59 423.267C1456.02 422.94 1456.29 423.037 1456.41 423.558C1457.06 426.669 1456.96 428.676 1458.83 431.373C1462.16 436.133 1465.44 440.944 1468.68 445.807C1468.82 446.02 1469.01 446.2 1469.23 446.337C1469.45 446.474 1469.69 446.565 1469.95 446.604L1471.65 446.864C1471.94 446.912 1472.22 447.026 1472.46 447.199C1472.7 447.371 1472.9 447.598 1473.05 447.86C1477.36 455.757 1482.11 463.341 1487.31 470.615C1488.56 472.361 1490.05 472.857 1491.78 472.101C1491.91 472.051 1492.02 471.974 1492.1 471.876C1492.19 471.779 1492.26 471.663 1492.3 471.537C1492.33 471.41 1492.34 471.277 1492.32 471.147C1492.3 471.017 1492.26 470.893 1492.18 470.783Z" stroke="#FBE2B7" stroke-opacity="0.5" stroke-width="2"/>
<path d="M1564.75 462.264C1558.53 467.668 1551.31 469.9 1543.08 468.96C1542.8 468.926 1542.51 468.962 1542.24 469.063C1541.97 469.164 1541.72 469.328 1541.52 469.542C1538.7 472.576 1536.28 475.911 1534.26 479.548C1534.03 479.957 1533.78 480.232 1533.51 480.375C1533.12 480.58 1532.74 480.636 1532.37 480.544C1531.64 480.37 1531.44 479.951 1531.79 479.287L1537.57 468.316C1537.82 467.836 1537.67 467.586 1537.12 467.565C1533.51 467.443 1523.3 467.504 1521.48 471.013C1519.54 474.721 1517.49 478.21 1515.32 481.479C1515.26 481.562 1515.16 481.619 1515.06 481.639C1514.96 481.659 1514.85 481.642 1514.76 481.589C1514.67 481.536 1514.6 481.452 1514.57 481.353C1514.54 481.254 1514.54 481.146 1514.58 481.05L1517.3 475.472C1517.56 474.941 1517.4 474.629 1516.81 474.537L1505.04 472.791C1504.52 472.711 1504 472.814 1503.55 473.082L1494.8 478.154C1494.27 478.46 1493.78 478.409 1493.33 478C1491.03 475.947 1488.28 479.073 1486.31 480.238C1485.95 480.462 1485.67 480.381 1485.47 479.992L1480.02 468.653C1479.74 468.092 1479.86 467.984 1480.38 468.332C1483.76 470.661 1488.95 476.805 1493.21 475.733C1497.39 474.675 1503.28 470.324 1508.84 470.937C1511.68 471.253 1514.51 471.789 1517.33 472.545C1517.81 472.678 1518.14 472.505 1518.32 472.024L1519.67 468.393C1519.87 467.872 1520.23 467.535 1520.76 467.382C1528.91 465.144 1537.14 464.486 1545.46 465.405C1546.03 465.466 1546.54 465.313 1546.98 464.945L1549.14 463.076C1549.64 462.626 1550.15 462.616 1550.67 463.045C1554.7 466.309 1561.61 465.512 1560 459C1559.88 458.499 1559.94 458.024 1560.18 457.575C1561.85 454.531 1563.46 451.461 1565.01 448.366C1566.1 446.2 1567.29 442.916 1568.56 438.513C1570.31 432.507 1573.05 427.057 1576.78 422.164C1576.89 421.994 1577.06 421.872 1577.26 421.822C1577.45 421.773 1577.66 421.798 1577.84 421.894C1578.02 421.991 1578.16 422.15 1578.22 422.342C1578.29 422.534 1578.28 422.743 1578.2 422.93C1576.18 428.599 1572.12 436.062 1571.94 441.624C1571.93 442.135 1572.16 442.487 1572.63 442.681C1574.8 443.59 1576.71 443.657 1578.34 442.88C1591.01 436.874 1603.01 432.65 1614.35 430.208C1614.91 430.096 1615.35 430.116 1615.68 430.27C1615.79 430.327 1615.88 430.415 1615.94 430.524C1616 430.632 1616.02 430.756 1616.01 430.878C1615.99 431.001 1615.94 431.116 1615.86 431.21C1615.78 431.303 1615.68 431.371 1615.56 431.403C1606.67 433.763 1596.04 435.541 1588.24 439.601C1587.92 439.767 1587.67 440.028 1587.51 440.348C1587.35 440.668 1587.29 441.03 1587.35 441.383C1587.41 441.736 1587.57 442.062 1587.83 442.314C1588.08 442.566 1588.41 442.732 1588.76 442.788C1596.73 444.055 1603.65 447.595 1609.52 453.407C1609.64 453.53 1609.73 453.662 1609.78 453.806C1609.83 453.959 1609.88 454.117 1609.92 454.281C1610.04 454.771 1609.9 454.863 1609.49 454.556C1602.61 449.408 1594.89 446.119 1586.35 444.688C1585.69 444.58 1585.01 444.638 1584.38 444.857C1583.74 445.077 1583.17 445.451 1582.72 445.945C1579 449.97 1575.31 454.204 1571.64 458.648C1568.17 462.877 1567 467.627 1565.35 472.699C1565.28 472.884 1565.14 473.037 1564.96 473.128C1564.79 473.22 1564.58 473.243 1564.39 473.194C1564.2 473.145 1564.03 473.026 1563.92 472.862C1563.81 472.697 1563.76 472.497 1563.78 472.3L1565.53 462.693C1565.55 462.597 1565.53 462.498 1565.49 462.411C1565.44 462.324 1565.38 462.253 1565.29 462.206C1565.2 462.159 1565.11 462.139 1565.01 462.15C1564.91 462.16 1564.82 462.2 1564.75 462.264Z" stroke="#FBE2B7" stroke-opacity="0.5" stroke-width="2"/>
</g>
<defs>
<filter id="filter0_d_56_1253" x="6.10352e-05" y="0" width="1784" height="749" filterUnits="userSpaceOnUse" color-interpolation-filters="sRGB">
<feFlood flood-opacity="0" result="BackgroundImageFix"/>
<feColorMatrix in="SourceAlpha" type="matrix" values="0 0 0 0 0 0 0 0 0 0 0 0 0 0 0 0 0 0 127 0" result="hardAlpha"/>
<feOffset dy="4"/>
<feGaussianBlur stdDeviation="2"/>
<feComposite in2="hardAlpha" operator="out"/>
<feColorMatrix type="matrix" values="0 0 0 0 0 0 0 0 0 0 0 0 0 0 0 0 0 0 0.25 0"/>
<feBlend mode="normal" in2="BackgroundImageFix" result="effect1_dropShadow_56_1253"/>
<feBlend mode="normal" in="SourceGraphic" in2="effect1_dropShadow_56_1253" result="shape"/>
</filter>
<clipPath id="clip0_56_1253">
<rect width="1776" height="741" fill="white" transform="matrix(-1 0 0 1 1780 0)"/>
</clipPath>
</defs>
</svg>
